<svg xmlns="http://www.w3.org/2000/svg" xmlns:xlink="http://www.w3.org/1999/xlink" width="500" zoomAndPan="magnify" viewBox="0 0 375 374.999991" height="500" preserveAspectRatio="xMidYMid meet" version="1.0"><path fill="#000000" d="M 136.015625 304.449219 C 116.738281 304.449219 101.058594 320.128906 101.058594 339.40625 C 101.058594 358.6875 116.738281 374.363281 136.015625 374.363281 C 155.296875 374.363281 170.972656 358.6875 170.972656 339.40625 C 170.972656 320.128906 155.296875 304.449219 136.015625 304.449219 Z M 136.015625 355.296875 C 127.253906 355.296875 120.128906 348.171875 120.128906 339.40625 C 120.128906 330.640625 127.253906 323.515625 136.015625 323.515625 C 144.78125 323.515625 151.90625 330.640625 151.90625 339.40625 C 151.90625 348.171875 144.78125 355.296875 136.015625 355.296875 Z M 136.015625 355.296875 " fill-opacity="1" fill-rule="nonzero"/><path fill="#000000" d="M 263.136719 304.449219 C 243.855469 304.449219 228.179688 320.128906 228.179688 339.40625 C 228.179688 358.6875 243.855469 374.363281 263.136719 374.363281 C 282.414062 374.363281 298.09375 358.6875 298.09375 339.40625 C 298.09375 320.128906 282.414062 304.449219 263.136719 304.449219 Z M 263.136719 355.296875 C 254.371094 355.296875 247.246094 348.171875 247.246094 339.40625 C 247.246094 330.640625 254.371094 323.515625 263.136719 323.515625 C 271.898438 323.515625 279.023438 330.640625 279.023438 339.40625 C 279.023438 348.171875 271.898438 355.296875 263.136719 355.296875 Z M 263.136719 355.296875 " fill-opacity="1" fill-rule="nonzero"/><path fill="#000000" d="M 315.261719 165.089844 C 310.320312 163.226562 304.835938 165.773438 303.007812 170.71875 L 287.179688 213.46875 C 286.757812 214.683594 285.554688 215.464844 284.113281 215.464844 L 98.007812 215.464844 L 78.933594 94.703125 L 200.332031 94.703125 C 205.597656 94.703125 209.867188 90.433594 209.867188 85.167969 C 209.867188 79.90625 205.597656 75.636719 200.332031 75.636719 L 75.921875 75.636719 L 70.855469 43.578125 C 69.144531 32.691406 59.90625 24.789062 48.882812 24.789062 L 8.898438 24.789062 C 3.636719 24.789062 -0.636719 29.058594 -0.636719 34.320312 C -0.636719 39.585938 3.636719 43.855469 8.898438 43.855469 L 48.882812 43.855469 C 50.460938 43.855469 51.777344 44.980469 52.011719 46.542969 L 86.769531 266.59375 C 88.484375 277.480469 97.71875 285.382812 108.742188 285.382812 L 301.269531 285.382812 C 306.535156 285.382812 310.804688 281.109375 310.804688 275.847656 C 310.804688 270.582031 306.535156 266.3125 301.269531 266.3125 L 108.742188 266.3125 C 107.167969 266.3125 105.851562 265.191406 105.617188 263.625 L 101.019531 234.535156 L 284.113281 234.535156 C 293.636719 234.535156 302.101562 228.59375 305.121094 219.917969 L 320.886719 177.335938 C 322.710938 172.402344 320.191406 166.914062 315.261719 165.089844 Z M 315.261719 165.089844 " fill-opacity="1" fill-rule="nonzero"/><path fill="#000000" d="M 301.269531 -0.636719 C 260.964844 -0.636719 228.179688 32.15625 228.179688 72.457031 C 228.179688 112.757812 260.964844 145.550781 301.269531 145.550781 C 341.578125 145.550781 374.363281 112.757812 374.363281 72.457031 C 374.363281 32.15625 341.578125 -0.636719 301.269531 -0.636719 Z M 301.269531 126.484375 C 271.476562 126.484375 247.246094 102.246094 247.246094 72.457031 C 247.246094 42.671875 271.476562 18.433594 301.269531 18.433594 C 331.066406 18.433594 355.296875 42.671875 355.296875 72.457031 C 355.296875 102.246094 331.066406 126.484375 301.269531 126.484375 Z M 301.269531 126.484375 " fill-opacity="1" fill-rule="nonzero"/><path fill="#000000" d="M 326.695312 62.921875 L 310.804688 62.921875 L 310.804688 47.035156 C 310.804688 41.769531 306.535156 37.5 301.269531 37.5 C 296.007812 37.5 291.738281 41.769531 291.738281 47.035156 L 291.738281 62.921875 L 275.847656 62.921875 C 270.582031 62.921875 266.3125 67.195312 266.3125 72.457031 C 266.3125 77.722656 270.582031 81.992188 275.847656 81.992188 L 291.738281 81.992188 L 291.738281 97.882812 C 291.738281 103.144531 296.007812 107.414062 301.269531 107.414062 C 306.535156 107.414062 310.804688 103.144531 310.804688 97.882812 L 310.804688 81.992188 L 326.695312 81.992188 C 331.957031 81.992188 336.230469 77.722656 336.230469 72.457031 C 336.230469 67.195312 331.957031 62.921875 326.695312 62.921875 Z M 326.695312 62.921875 " fill-opacity="1" fill-rule="nonzero"/></svg>