<svg xmlns="http://www.w3.org/2000/svg" xmlns:xlink="http://www.w3.org/1999/xlink" width="500" zoomAndPan="magnify" viewBox="0 0 375 374.999991" height="500" preserveAspectRatio="xMidYMid meet" version="1.0"><defs><clipPath id="2c7455c18e"><path d="M 0 140 L 375 140 L 375 351.9375 L 0 351.9375 Z M 0 140 " clip-rule="nonzero"/></clipPath></defs><path fill="#000000" d="M 63.339844 131.078125 L 63.339844 87.390625 C 63.339844 63.84375 82.464844 44.695312 105.984375 44.695312 L 128.578125 44.695312 C 130.59375 51.183594 136.582031 55.921875 143.730469 55.921875 L 231.28125 55.921875 C 238.429688 55.921875 244.417969 51.183594 246.433594 44.695312 L 269.027344 44.695312 C 292.546875 44.695312 311.671875 63.84375 311.671875 87.390625 L 311.671875 131.078125 L 325.886719 131.078125 L 325.886719 87.390625 C 325.886719 56.007812 300.375 30.464844 269.027344 30.464844 L 244.03125 30.464844 C 241.113281 26.582031 236.519531 24.023438 231.269531 24.023438 L 143.71875 24.023438 C 138.480469 24.023438 133.875 26.582031 130.96875 30.476562 L 105.984375 30.476562 C 74.636719 30.476562 49.125 56.019531 49.125 87.402344 L 49.125 131.089844 L 63.339844 131.089844 Z M 63.339844 131.078125 " fill-opacity="1" fill-rule="nonzero"/><g clip-path="url(#2c7455c18e)"><path fill="#000000" d="M 357.1875 140.042969 L 17.8125 140.042969 C 7.980469 140.042969 0 148.03125 0 157.875 C 0 167.730469 7.980469 175.710938 17.8125 175.710938 L 22.488281 175.710938 C 27.433594 203.691406 42.65625 288.582031 49.722656 314.816406 C 58.171875 346.09375 67.96875 351.679688 91.324219 351.679688 L 276.785156 351.65625 L 283.675781 351.679688 C 307.03125 351.679688 316.828125 346.09375 325.265625 314.816406 C 332.34375 288.59375 347.566406 203.679688 352.511719 175.710938 L 357.1875 175.710938 C 367.019531 175.710938 375 167.730469 375 157.875 C 375 148.019531 367.019531 140.042969 357.1875 140.042969 Z M 318.761719 149.335938 C 323.472656 149.335938 327.292969 153.148438 327.292969 157.875 C 327.292969 162.605469 323.484375 166.429688 318.761719 166.429688 C 314.039062 166.429688 310.230469 162.605469 310.230469 157.875 C 310.230469 153.148438 314.050781 149.335938 318.761719 149.335938 Z M 194.601562 175.695312 L 274.640625 175.695312 L 266.8125 215.84375 L 194.601562 215.84375 Z M 56.238281 149.335938 C 60.949219 149.335938 64.769531 153.148438 64.769531 157.875 C 64.769531 162.605469 60.960938 166.429688 56.238281 166.429688 C 51.515625 166.429688 47.707031 162.605469 47.707031 157.875 C 47.707031 153.148438 51.515625 149.335938 56.238281 149.335938 Z M 44.144531 175.695312 L 85.875 175.695312 L 93.703125 215.84375 L 51.398438 215.84375 C 48.457031 199.84375 45.867188 185.410156 44.144531 175.695312 Z M 62.753906 275.234375 C 59.953125 261.320312 56.90625 245.457031 54.035156 230.0625 L 96.46875 230.0625 L 105.28125 275.234375 Z M 98.214844 330.292969 L 91.324219 330.316406 C 77.15625 330.316406 75.996094 330.316406 70.3125 309.234375 C 69.035156 304.515625 67.464844 297.617188 65.707031 289.453125 L 108.046875 289.453125 L 116.027344 330.28125 L 98.214844 330.28125 Z M 180.398438 330.304688 L 130.511719 330.292969 L 122.542969 289.464844 L 180.398438 289.464844 Z M 180.398438 275.234375 L 119.777344 275.234375 L 110.953125 230.0625 L 180.398438 230.0625 Z M 180.398438 215.84375 L 108.175781 215.84375 L 100.347656 175.695312 L 180.386719 175.695312 L 180.386719 215.84375 Z M 244.488281 330.316406 L 194.601562 330.304688 L 194.601562 289.464844 L 252.457031 289.464844 Z M 194.601562 275.234375 L 194.601562 230.0625 L 264.046875 230.0625 L 255.222656 275.234375 Z M 304.675781 309.246094 C 299.015625 330.28125 297.84375 330.328125 283.757812 330.328125 C 283.734375 330.328125 283.710938 330.328125 283.675781 330.328125 L 258.972656 330.328125 L 266.941406 289.476562 L 309.28125 289.476562 C 307.535156 297.617188 305.953125 304.515625 304.675781 309.246094 Z M 312.246094 275.234375 L 269.71875 275.234375 L 278.53125 230.0625 L 320.964844 230.0625 C 318.09375 245.457031 315.046875 261.332031 312.246094 275.234375 Z M 323.601562 215.84375 L 281.308594 215.84375 L 289.136719 175.695312 L 330.867188 175.695312 C 329.132812 185.410156 326.542969 199.84375 323.601562 215.84375 Z M 323.601562 215.84375 " fill-opacity="1" fill-rule="nonzero"/></g></svg>