<svg xmlns="http://www.w3.org/2000/svg" xmlns:xlink="http://www.w3.org/1999/xlink" width="500" zoomAndPan="magnify" viewBox="0 0 375 374.999991" height="500" preserveAspectRatio="xMidYMid meet" version="1.0"><path fill="#231f20" d="M 187.613281 165.257812 C 187.839844 165.117188 188.074219 164.996094 188.3125 164.894531 C 187.851562 164.914062 187.386719 164.914062 186.90625 164.890625 C 187.148438 164.996094 187.382812 165.117188 187.613281 165.257812 Z M 187.613281 165.257812 " fill-opacity="1" fill-rule="nonzero"/><path fill="#231f20" d="M 312.253906 135.003906 C 312.261719 135 312.269531 135 312.273438 135 C 312.300781 134.992188 312.328125 134.984375 312.355469 134.980469 C 312.511719 134.941406 312.488281 134.917969 312.253906 135.003906 Z M 312.253906 135.003906 " fill-opacity="1" fill-rule="nonzero"/><path fill="#231f20" d="M 315.304688 293.109375 C 315.867188 292.773438 314.921875 293.101562 315.304688 293.109375 Z M 315.304688 293.109375 " fill-opacity="1" fill-rule="nonzero"/><path fill="#231f20" d="M 315.6875 215.53125 C 315.6875 219.242188 315.6875 222.949219 315.6875 226.65625 C 315.6875 242.148438 315.6875 257.640625 315.6875 273.132812 C 315.6875 277.976562 315.6875 282.824219 315.6875 287.667969 C 315.6875 288.949219 315.6875 290.226562 315.6875 291.503906 C 315.6875 291.808594 315.6875 292.105469 315.6875 292.410156 C 315.6875 292.460938 315.6875 292.523438 315.6875 292.582031 C 315.6875 292.585938 315.6875 292.597656 315.6875 292.605469 C 315.6875 292.644531 315.6875 292.675781 315.6875 292.703125 C 315.683594 292.71875 315.671875 292.738281 315.664062 292.761719 C 315.644531 292.796875 315.617188 292.851562 315.582031 292.917969 C 315.570312 292.933594 315.554688 292.941406 315.539062 292.964844 C 315.515625 292.988281 315.492188 293.011719 315.476562 293.03125 C 315.4375 293.046875 315.382812 293.074219 315.304688 293.109375 C 315.335938 293.117188 315.363281 293.109375 315.410156 293.109375 C 315.367188 293.109375 315.332031 293.117188 315.292969 293.117188 C 315.277344 293.128906 315.257812 293.140625 315.242188 293.152344 C 315.261719 293.140625 315.277344 293.128906 315.292969 293.121094 C 314.925781 293.144531 314.660156 293.128906 314.15625 293.25 C 314.09375 293.269531 314.027344 293.28125 313.964844 293.296875 C 313.632812 293.378906 313.304688 293.464844 312.96875 293.542969 C 311.542969 293.898438 310.113281 294.25 308.6875 294.601562 C 303.363281 295.914062 298.035156 297.230469 292.707031 298.546875 C 276.726562 302.492188 260.746094 306.4375 244.761719 310.386719 C 230.375 313.941406 215.980469 317.492188 201.59375 321.046875 C 198.25 321.871094 194.914062 322.691406 191.578125 323.523438 C 191.367188 323.570312 191.152344 323.625 190.945312 323.679688 C 190.9375 323.679688 190.929688 323.679688 190.921875 323.683594 C 190.4375 323.804688 189.964844 324.007812 189.480469 324.136719 C 189.589844 324.109375 188.34375 324.316406 188.582031 324.304688 C 187.890625 324.371094 187.191406 324.34375 186.503906 324.28125 C 186.878906 324.3125 186.105469 324.207031 185.988281 324.183594 C 185.664062 324.117188 185.34375 324.03125 185.023438 323.933594 C 184.925781 323.902344 184.796875 323.855469 184.675781 323.8125 C 184.574219 323.765625 184.496094 323.730469 184.375 323.699219 C 184.296875 323.664062 184.269531 323.652344 184.34375 323.6875 C 184.328125 323.683594 184.3125 323.683594 184.300781 323.675781 C 184.230469 323.660156 184.160156 323.640625 184.089844 323.625 C 183.75 323.542969 183.402344 323.457031 183.058594 323.367188 C 172.679688 320.808594 162.292969 318.246094 151.90625 315.675781 C 135.339844 311.585938 118.773438 307.5 102.203125 303.40625 C 89.890625 300.367188 77.574219 297.324219 65.261719 294.28125 C 64.070312 293.988281 62.878906 293.699219 61.6875 293.398438 C 61.488281 293.351562 61.285156 293.304688 61.085938 293.253906 C 60.746094 293.175781 60.519531 293.132812 60.054688 293.113281 C 60.019531 293.113281 59.984375 293.113281 59.949219 293.105469 C 59.921875 293.097656 59.875 293.082031 59.820312 293.0625 C 59.816406 293.0625 59.816406 293.058594 59.816406 293.058594 C 60.265625 293.171875 59.792969 292.917969 59.738281 292.964844 C 59.675781 292.890625 59.617188 292.820312 59.574219 292.765625 C 59.566406 292.738281 59.558594 292.707031 59.546875 292.667969 C 59.546875 292.644531 59.546875 292.617188 59.546875 292.585938 C 59.546875 290.519531 59.546875 288.449219 59.546875 286.378906 C 59.546875 273.910156 59.546875 261.4375 59.546875 248.964844 C 59.546875 237.824219 59.546875 226.679688 59.546875 215.535156 C 57.667969 215.089844 55.789062 214.628906 53.910156 214.183594 C 53.253906 214.019531 52.597656 213.863281 51.9375 213.707031 C 51.9375 214.691406 51.9375 215.675781 51.9375 216.667969 C 51.9375 233.003906 51.9375 249.347656 51.9375 265.6875 C 51.9375 274.46875 51.9375 283.25 51.9375 292.027344 C 51.9375 295.265625 53.402344 298.425781 56.457031 299.859375 C 57.453125 300.332031 58.308594 300.519531 59.355469 300.660156 C 59.6875 300.742188 60.027344 300.824219 60.359375 300.910156 C 64.160156 301.84375 67.964844 302.789062 71.765625 303.722656 C 86.578125 307.382812 101.386719 311.035156 116.199219 314.695312 C 131.921875 318.578125 147.648438 322.460938 163.371094 326.34375 C 168.316406 327.566406 173.261719 328.785156 178.203125 330.003906 C 179.375 330.292969 180.546875 330.585938 181.714844 330.871094 C 181.90625 330.921875 182.09375 330.964844 182.285156 331.011719 C 181.28125 330.765625 180.859375 330.429688 182.355469 331.042969 C 182.632812 331.15625 182.921875 331.242188 183.210938 331.328125 C 184.820312 331.804688 186.570312 331.984375 188.238281 331.933594 C 190.265625 331.875 192.144531 331.214844 194.085938 330.734375 C 195.496094 330.386719 196.90625 330.039062 198.308594 329.695312 C 203.609375 328.382812 208.90625 327.074219 214.207031 325.769531 C 230.167969 321.824219 246.132812 317.882812 262.09375 313.941406 C 276.519531 310.378906 290.945312 306.816406 305.371094 303.257812 C 308.742188 302.425781 312.117188 301.589844 315.492188 300.757812 C 315.714844 300.703125 315.9375 300.648438 316.160156 300.589844 C 316.171875 300.589844 316.179688 300.585938 316.191406 300.585938 C 314.386719 301.027344 316.792969 300.546875 316.898438 300.527344 C 317.238281 300.457031 317.546875 300.371094 317.871094 300.242188 C 319.832031 299.507812 321.539062 298.128906 322.445312 296.207031 C 323.167969 294.667969 323.300781 293.140625 323.300781 291.507812 C 323.300781 282.054688 323.300781 272.605469 323.300781 263.15625 C 323.300781 246.671875 323.300781 230.1875 323.300781 213.710938 C 320.757812 214.316406 318.226562 214.925781 315.6875 215.53125 Z M 59.777344 293.050781 C 59.753906 293.042969 59.730469 293.035156 59.699219 293.027344 C 59.730469 293.035156 59.753906 293.039062 59.777344 293.050781 Z M 59.671875 292.953125 C 59.636719 292.902344 59.609375 292.867188 59.585938 292.832031 C 59.582031 292.828125 59.582031 292.828125 59.582031 292.820312 C 59.605469 292.859375 59.636719 292.898438 59.671875 292.953125 Z M 59.550781 292.785156 C 59.550781 292.785156 59.550781 292.777344 59.550781 292.773438 C 59.558594 292.785156 59.570312 292.800781 59.578125 292.820312 L 59.582031 292.824219 C 59.570312 292.808594 59.558594 292.800781 59.550781 292.785156 Z M 59.566406 292.761719 C 59.558594 292.75 59.554688 292.746094 59.546875 292.742188 C 59.546875 292.71875 59.546875 292.691406 59.542969 292.671875 C 59.554688 292.703125 59.5625 292.734375 59.566406 292.761719 Z M 59.066406 300.585938 C 59.140625 300.601562 59.214844 300.625 59.292969 300.640625 C 59.304688 300.644531 59.320312 300.652344 59.335938 300.652344 C 58.804688 300.574219 58.871094 300.535156 59.066406 300.585938 Z M 59.460938 300.671875 C 59.539062 300.679688 59.617188 300.6875 59.699219 300.699219 C 59.609375 300.6875 59.53125 300.679688 59.460938 300.671875 Z M 59.460938 300.671875 " fill-opacity="1" fill-rule="nonzero"/><path fill="#231f20" d="M 190.417969 176.078125 C 191.933594 172.9375 191.621094 169.671875 189.460938 166.921875 C 188.691406 165.933594 187.464844 164.960938 186.226562 164.660156 C 185.800781 164.5625 185.375 164.457031 184.949219 164.355469 C 182.6875 163.808594 180.421875 163.265625 178.160156 162.71875 C 169.46875 160.628906 160.78125 158.539062 152.089844 156.445312 C 140.671875 153.699219 129.25 150.949219 117.828125 148.203125 C 107.0625 145.609375 96.289062 143.019531 85.523438 140.425781 C 78.789062 138.808594 72.050781 137.183594 65.316406 135.566406 C 64.65625 135.410156 64 135.25 63.34375 135.089844 C 63.203125 135.058594 63.066406 135.023438 62.929688 134.992188 C 62.910156 134.988281 62.890625 134.984375 62.871094 134.976562 C 63.101562 135.070312 63.328125 135.160156 63.554688 135.25 C 63.175781 135.089844 62.792969 134.929688 62.410156 134.773438 C 62.183594 134.675781 61.941406 134.625 61.703125 134.570312 C 60.914062 134.394531 60.070312 134.308594 59.261719 134.402344 C 57.472656 134.609375 56.039062 135.203125 54.617188 136.316406 C 54.03125 136.769531 53.59375 137.328125 53.160156 137.929688 C 52.863281 138.34375 52.578125 138.621094 53.34375 137.804688 C 53.226562 137.929688 53.113281 138.050781 53 138.175781 C 52.316406 138.898438 51.640625 139.621094 50.957031 140.34375 C 44.34375 147.375 37.734375 154.410156 31.121094 161.4375 C 23.726562 169.300781 16.332031 177.167969 8.9375 185.03125 C 7.222656 186.863281 5.5 188.6875 3.78125 190.515625 C 0.0585938 194.480469 2.441406 201.792969 7.636719 203.042969 C 12.933594 204.3125 18.230469 205.589844 23.527344 206.863281 C 33.652344 209.296875 43.777344 211.742188 53.902344 214.175781 C 65.472656 216.957031 77.046875 219.742188 88.621094 222.527344 C 98.253906 224.84375 107.890625 227.164062 117.523438 229.484375 C 121.839844 230.523438 126.15625 231.5625 130.472656 232.597656 C 130.746094 232.667969 130.628906 232.71875 129.839844 232.335938 C 131.539062 233.160156 133.289062 233.371094 135.140625 233.050781 C 136.617188 232.800781 137.808594 232.027344 138.964844 231.125 C 139.53125 230.683594 139.964844 230.027344 140.375 229.457031 C 140.886719 228.742188 139.804688 230.035156 140.054688 229.777344 C 140.449219 229.355469 140.847656 228.929688 141.242188 228.507812 C 143.597656 226.007812 145.957031 223.496094 148.3125 221 C 156.074219 212.738281 163.839844 204.480469 171.605469 196.222656 C 177.390625 190.066406 183.175781 183.914062 188.960938 177.765625 C 189.246094 177.457031 189.53125 177.152344 189.820312 176.847656 C 191.238281 175.335938 191.324219 172.96875 189.820312 171.46875 C 188.390625 170.039062 185.863281 169.957031 184.441406 171.46875 C 180.175781 176.003906 175.910156 180.542969 171.644531 185.078125 C 163.691406 193.535156 155.738281 201.996094 147.785156 210.449219 C 143.410156 215.105469 139.035156 219.753906 134.660156 224.410156 C 134.277344 224.816406 134.082031 225.179688 133.808594 225.617188 C 134.320312 224.804688 133.972656 225.382812 133.765625 225.585938 C 133.164062 226.175781 134.472656 225.125 133.765625 225.558594 C 133.054688 226 134.59375 225.289062 133.808594 225.558594 C 133.550781 225.652344 132.761719 225.742188 133.894531 225.609375 C 133.65625 225.636719 133.417969 225.625 133.175781 225.617188 C 134.292969 225.667969 133.339844 225.597656 133.003906 225.484375 C 134.15625 225.882812 132.828125 225.347656 132.367188 225.238281 C 131.863281 225.113281 131.355469 224.992188 130.847656 224.867188 C 128.449219 224.292969 126.042969 223.714844 123.640625 223.136719 C 114.78125 221.003906 105.917969 218.871094 97.054688 216.738281 C 85.59375 213.984375 74.132812 211.222656 62.675781 208.46875 C 52.003906 205.894531 41.328125 203.332031 30.65625 200.761719 C 24.152344 199.195312 17.644531 197.632812 11.140625 196.066406 C 10.566406 195.925781 9.988281 195.792969 9.410156 195.648438 C 9.3125 195.625 9.214844 195.601562 9.121094 195.578125 C 9.28125 195.621094 10.191406 196.089844 9.585938 195.707031 C 10.394531 196.21875 9.824219 195.878906 9.613281 195.667969 C 9.027344 195.066406 10.078125 196.371094 9.640625 195.667969 C 9.203125 194.957031 9.914062 196.492188 9.640625 195.710938 C 9.550781 195.453125 9.457031 194.664062 9.589844 195.796875 C 9.5625 195.558594 9.574219 195.316406 9.589844 195.074219 C 9.53125 196.191406 9.601562 195.238281 9.71875 194.90625 C 9.320312 196.050781 8.597656 196.496094 9.195312 195.855469 C 9.4375 195.601562 9.679688 195.347656 9.917969 195.09375 C 10.808594 194.140625 11.707031 193.1875 12.601562 192.234375 C 19.617188 184.777344 26.636719 177.304688 33.652344 169.84375 C 40.726562 162.324219 47.800781 154.800781 54.871094 147.28125 C 56.160156 145.914062 57.441406 144.542969 58.730469 143.179688 C 59.117188 142.769531 59.308594 142.40625 59.585938 141.96875 C 59.074219 142.78125 59.417969 142.203125 59.625 142 C 60.222656 141.410156 58.917969 142.460938 59.625 142.027344 C 60.335938 141.585938 58.796875 142.300781 59.582031 142.027344 C 59.839844 141.9375 60.625 141.847656 59.496094 141.976562 C 59.734375 141.949219 59.972656 141.960938 60.210938 141.976562 C 59.097656 141.917969 60.054688 141.988281 60.386719 142.105469 C 59.234375 141.707031 60.5625 142.242188 61.023438 142.351562 C 61.53125 142.472656 62.039062 142.59375 62.546875 142.71875 C 68.84375 144.234375 75.136719 145.75 81.4375 147.261719 C 92.019531 149.808594 102.601562 152.359375 113.1875 154.902344 C 124.679688 157.667969 136.167969 160.433594 147.65625 163.199219 C 156.667969 165.363281 165.679688 167.535156 174.691406 169.703125 C 177.210938 170.3125 179.726562 170.917969 182.25 171.523438 C 182.824219 171.660156 183.40625 171.800781 183.980469 171.9375 C 184.078125 171.960938 184.175781 171.984375 184.269531 172.007812 C 184.109375 171.964844 183.199219 171.5 183.800781 171.882812 C 182.996094 171.371094 183.566406 171.714844 183.773438 171.925781 C 184.359375 172.519531 183.308594 171.214844 183.746094 171.921875 C 184.183594 172.628906 183.472656 171.09375 183.746094 171.878906 C 183.835938 172.132812 183.925781 172.921875 183.792969 171.792969 C 183.820312 172.03125 183.8125 172.269531 183.796875 172.507812 C 183.851562 171.394531 183.78125 172.347656 183.667969 172.6875 C 183.726562 172.535156 183.789062 172.382812 183.847656 172.238281 C 182.941406 174.105469 183.316406 176.332031 185.210938 177.441406 C 186.894531 178.429688 189.515625 177.945312 190.417969 176.078125 Z M 190.417969 176.078125 " fill-opacity="1" fill-rule="nonzero"/><path fill="#231f20" d="M 191.386719 172.238281 C 191.824219 173.152344 191.484375 172.472656 191.417969 172.21875 C 191.179688 171.394531 191.460938 173.117188 191.421875 172.273438 C 191.40625 171.988281 191.558594 171.234375 191.371094 172.339844 C 191.410156 172.105469 191.488281 171.882812 191.566406 171.65625 C 191.226562 172.628906 191.457031 171.976562 191.613281 171.722656 C 191.105469 172.546875 191.410156 171.976562 191.632812 171.753906 C 192.222656 171.15625 190.921875 172.210938 191.644531 171.753906 C 191.195312 172.039062 190.71875 172.070312 190.964844 172.011719 C 191.054688 171.992188 191.140625 171.96875 191.230469 171.949219 C 191.800781 171.808594 192.367188 171.675781 192.9375 171.535156 C 195.441406 170.933594 197.941406 170.332031 200.445312 169.730469 C 209.433594 167.566406 218.425781 165.402344 227.414062 163.242188 C 238.898438 160.476562 250.382812 157.710938 261.871094 154.949219 C 272.46875 152.398438 283.066406 149.847656 293.664062 147.296875 C 299.992188 145.777344 306.316406 144.253906 312.640625 142.734375 C 313.160156 142.605469 313.675781 142.480469 314.195312 142.359375 C 314.609375 142.261719 314.769531 142.183594 315.292969 141.929688 C 314.378906 142.367188 315.0625 142.027344 315.316406 141.957031 C 316.144531 141.726562 314.414062 142.007812 315.261719 141.964844 C 315.546875 141.949219 316.300781 142.101562 315.195312 141.910156 C 315.429688 141.953125 315.652344 142.027344 315.878906 142.109375 C 314.90625 141.769531 315.5625 142 315.8125 142.15625 C 314.992188 141.644531 315.5625 141.953125 315.78125 142.171875 C 316.382812 142.761719 315.324219 141.464844 315.785156 142.183594 C 316.097656 142.679688 315.746094 142.371094 316.507812 143.175781 C 317.765625 144.519531 319.03125 145.863281 320.292969 147.210938 C 327.347656 154.710938 334.402344 162.214844 341.457031 169.714844 C 348.492188 177.195312 355.53125 184.679688 362.566406 192.167969 C 363.804688 193.488281 365.046875 194.804688 366.289062 196.121094 C 365.167969 194.929688 365.410156 194.484375 365.664062 195.375 C 365.898438 196.199219 365.613281 194.472656 365.65625 195.324219 C 365.671875 195.609375 365.519531 196.355469 365.707031 195.253906 C 365.667969 195.492188 365.589844 195.714844 365.515625 195.933594 C 365.851562 194.96875 365.625 195.621094 365.46875 195.871094 C 365.976562 195.046875 365.667969 195.617188 365.449219 195.835938 C 364.855469 196.441406 366.15625 195.382812 365.433594 195.84375 C 365.886719 195.554688 366.359375 195.523438 366.117188 195.585938 C 366.023438 195.605469 365.933594 195.628906 365.847656 195.648438 C 365.277344 195.785156 364.710938 195.921875 364.140625 196.0625 C 357.664062 197.617188 351.191406 199.175781 344.71875 200.730469 C 334.054688 203.300781 323.394531 205.863281 312.734375 208.429688 C 301.273438 211.1875 289.804688 213.941406 278.34375 216.703125 C 269.457031 218.84375 260.570312 220.980469 251.6875 223.117188 C 249.269531 223.699219 246.851562 224.28125 244.429688 224.863281 C 243.914062 224.988281 243.398438 225.109375 242.878906 225.242188 C 242.464844 225.335938 242.300781 225.410156 241.78125 225.667969 C 242.691406 225.230469 242.011719 225.566406 241.757812 225.636719 C 240.933594 225.875 242.660156 225.585938 241.8125 225.628906 C 241.523438 225.644531 240.773438 225.492188 241.875 225.683594 C 241.640625 225.644531 241.421875 225.5625 241.199219 225.488281 C 242.167969 225.824219 241.511719 225.597656 241.257812 225.441406 C 242.085938 225.949219 241.511719 225.640625 241.292969 225.421875 C 240.691406 224.835938 241.75 226.132812 241.289062 225.40625 C 240.972656 224.914062 241.328125 225.222656 240.570312 224.417969 C 236.230469 219.804688 231.890625 215.1875 227.550781 210.578125 C 219.601562 202.117188 211.648438 193.660156 203.691406 185.203125 C 199.394531 180.625 195.089844 176.050781 190.785156 171.472656 C 189.367188 169.960938 186.835938 170.042969 185.40625 171.472656 C 183.90625 172.972656 183.988281 175.339844 185.40625 176.851562 C 189.671875 181.386719 193.9375 185.925781 198.203125 190.460938 C 206.15625 198.917969 214.109375 207.375 222.0625 215.835938 C 226.4375 220.488281 230.8125 225.136719 235.1875 229.796875 C 233.84375 228.371094 235.566406 230.40625 235.59375 230.429688 C 236.050781 231 236.625 231.457031 237.222656 231.871094 C 238.511719 232.769531 240.027344 233.144531 241.570312 233.234375 C 242.300781 233.277344 243.066406 233.125 243.777344 232.96875 C 244.019531 232.917969 244.25 232.820312 244.476562 232.726562 C 244.78125 232.597656 245.082031 232.472656 245.386719 232.34375 C 244.699219 232.582031 244.46875 232.675781 244.707031 232.621094 C 244.734375 232.609375 244.757812 232.601562 244.78125 232.597656 C 245.210938 232.496094 245.632812 232.390625 246.058594 232.289062 C 248.324219 231.746094 250.585938 231.199219 252.847656 230.660156 C 261.535156 228.566406 270.226562 226.476562 278.914062 224.386719 C 290.335938 221.632812 301.757812 218.886719 313.179688 216.144531 C 323.949219 213.550781 334.71875 210.957031 345.488281 208.363281 C 352.226562 206.746094 358.960938 205.128906 365.695312 203.503906 C 366.351562 203.347656 367.011719 203.1875 367.667969 203.027344 C 369.53125 202.585938 370.953125 201.257812 372.03125 199.710938 C 373.914062 197.015625 373.621094 192.835938 371.390625 190.464844 C 370.757812 189.789062 370.121094 189.109375 369.492188 188.441406 C 362.964844 181.5 356.441406 174.5625 349.921875 167.625 C 342.46875 159.703125 335.019531 151.78125 327.570312 143.859375 C 325.769531 141.945312 323.96875 140.027344 322.164062 138.113281 C 322.066406 138.011719 321.972656 137.90625 321.875 137.808594 C 322.273438 138.230469 322.515625 138.621094 322.210938 138.140625 C 321.953125 137.730469 321.625 137.359375 321.320312 136.980469 C 320.871094 136.429688 320.210938 135.988281 319.644531 135.59375 C 318.414062 134.734375 316.730469 134.371094 315.253906 134.367188 C 314.519531 134.359375 313.757812 134.496094 313.054688 134.699219 C 312.613281 134.824219 312.035156 135.082031 311.675781 135.257812 C 312.414062 134.902344 312.59375 134.929688 312.355469 134.988281 C 312.328125 134.992188 312.300781 135 312.273438 135.007812 C 312.121094 135.042969 311.964844 135.082031 311.8125 135.117188 C 306.515625 136.390625 301.21875 137.664062 295.921875 138.941406 C 285.796875 141.375 275.671875 143.8125 265.546875 146.25 C 253.972656 149.035156 242.402344 151.820312 230.832031 154.605469 C 221.195312 156.921875 211.5625 159.242188 201.925781 161.5625 C 197.609375 162.597656 193.296875 163.636719 188.980469 164.675781 C 187.410156 165.054688 186.070312 166.417969 185.175781 167.699219 C 183.414062 170.226562 183.519531 173.402344 184.816406 176.085938 C 185.71875 177.953125 188.339844 178.433594 190.023438 177.449219 C 191.914062 176.335938 192.289062 174.109375 191.386719 172.238281 Z M 191.386719 172.238281 " fill-opacity="1" fill-rule="nonzero"/><path fill="#231f20" d="M 184.8125 100.242188 C 183.296875 103.382812 183.613281 106.648438 185.765625 109.398438 C 186.539062 110.382812 187.765625 111.359375 189.003906 111.65625 C 189.429688 111.757812 189.851562 111.859375 190.28125 111.964844 C 192.542969 112.507812 194.808594 113.050781 197.070312 113.597656 C 205.761719 115.6875 214.445312 117.78125 223.140625 119.871094 C 234.5625 122.617188 245.980469 125.367188 257.402344 128.113281 C 268.171875 130.703125 278.941406 133.296875 289.710938 135.890625 C 296.445312 137.511719 303.179688 139.128906 309.917969 140.753906 C 310.578125 140.910156 311.230469 141.070312 311.890625 141.226562 C 312.027344 141.257812 312.164062 141.292969 312.304688 141.324219 C 312.324219 141.328125 312.34375 141.335938 312.359375 141.339844 C 312.132812 141.246094 311.90625 141.15625 311.679688 141.066406 C 312.058594 141.230469 312.4375 141.386719 312.820312 141.546875 C 313.050781 141.640625 313.289062 141.691406 313.527344 141.746094 C 314.320312 141.921875 315.160156 142.011719 315.972656 141.917969 C 317.761719 141.707031 319.195312 141.113281 320.613281 140.003906 C 321.195312 139.542969 321.636719 138.984375 322.070312 138.382812 C 322.367188 137.96875 322.65625 137.695312 321.886719 138.507812 C 322.003906 138.382812 322.117188 138.261719 322.234375 138.140625 C 322.914062 137.417969 323.59375 136.695312 324.273438 135.972656 C 330.886719 128.941406 337.5 121.90625 344.109375 114.875 C 351.503906 107.011719 358.898438 99.148438 366.289062 91.285156 C 368.011719 89.457031 369.730469 87.628906 371.449219 85.800781 C 375.171875 81.84375 372.792969 74.527344 367.59375 73.277344 C 362.292969 72.003906 357 70.726562 351.703125 69.453125 C 341.578125 67.015625 331.449219 64.582031 321.328125 62.144531 C 309.753906 59.359375 298.183594 56.574219 286.613281 53.789062 C 276.976562 51.472656 267.34375 49.15625 257.707031 46.832031 C 253.390625 45.796875 249.078125 44.757812 244.761719 43.714844 C 244.488281 43.652344 244.605469 43.597656 245.390625 43.980469 C 243.695312 43.15625 241.945312 42.945312 240.089844 43.261719 C 238.613281 43.519531 237.425781 44.289062 236.269531 45.191406 C 235.703125 45.632812 235.265625 46.289062 234.859375 46.859375 C 234.347656 47.574219 235.429688 46.277344 235.183594 46.539062 C 234.78125 46.964844 234.386719 47.382812 233.988281 47.808594 C 231.632812 50.3125 229.277344 52.816406 226.921875 55.320312 C 219.160156 63.578125 211.390625 71.835938 203.625 80.09375 C 197.839844 86.246094 192.058594 92.402344 186.273438 98.550781 C 185.984375 98.855469 185.695312 99.160156 185.410156 99.46875 C 183.992188 100.976562 183.910156 103.347656 185.410156 104.84375 C 186.84375 106.273438 189.371094 106.355469 190.792969 104.84375 C 195.054688 100.308594 199.320312 95.773438 203.589844 91.234375 C 211.542969 82.777344 219.496094 74.316406 227.449219 65.859375 C 231.824219 61.207031 236.199219 56.554688 240.570312 51.902344 C 240.957031 51.496094 241.152344 51.132812 241.425781 50.695312 C 240.914062 51.507812 241.261719 50.933594 241.46875 50.722656 C 242.066406 50.136719 240.761719 51.1875 241.46875 50.75 C 242.175781 50.3125 240.636719 51.027344 241.421875 50.753906 C 241.679688 50.664062 242.46875 50.570312 241.339844 50.703125 C 241.578125 50.675781 241.816406 50.6875 242.054688 50.699219 C 240.941406 50.644531 241.894531 50.714844 242.230469 50.832031 C 241.074219 50.429688 242.40625 50.96875 242.863281 51.074219 C 243.375 51.199219 243.882812 51.320312 244.386719 51.441406 C 246.785156 52.019531 249.1875 52.597656 251.589844 53.175781 C 260.453125 55.308594 269.316406 57.441406 278.179688 59.574219 C 289.640625 62.332031 301.097656 65.089844 312.558594 67.847656 C 323.230469 70.417969 333.902344 72.984375 344.578125 75.550781 C 351.082031 77.117188 357.585938 78.683594 364.089844 80.25 C 364.667969 80.386719 365.246094 80.527344 365.824219 80.664062 C 365.921875 80.6875 366.015625 80.710938 366.109375 80.734375 C 365.953125 80.695312 365.042969 80.230469 365.644531 80.609375 C 364.835938 80.097656 365.410156 80.441406 365.613281 80.652344 C 366.203125 81.246094 365.152344 79.941406 365.585938 80.648438 C 366.027344 81.355469 365.3125 79.820312 365.585938 80.605469 C 365.675781 80.863281 365.769531 81.648438 365.636719 80.519531 C 365.667969 80.757812 365.652344 81 365.640625 81.234375 C 365.695312 80.121094 365.628906 81.078125 365.507812 81.414062 C 365.90625 80.269531 366.628906 79.824219 366.035156 80.460938 C 365.792969 80.714844 365.554688 80.96875 365.3125 81.226562 C 364.417969 82.175781 363.523438 83.125 362.632812 84.082031 C 355.613281 91.542969 348.59375 99.007812 341.578125 106.46875 C 334.503906 113.988281 327.429688 121.511719 320.355469 129.035156 C 319.074219 130.398438 317.789062 131.765625 316.5 133.132812 C 316.117188 133.542969 315.925781 133.902344 315.648438 134.339844 C 316.160156 133.53125 315.8125 134.105469 315.605469 134.3125 C 315.007812 134.898438 316.3125 133.847656 315.609375 134.285156 C 314.898438 134.722656 316.4375 134.011719 315.652344 134.285156 C 315.394531 134.375 314.605469 134.464844 315.738281 134.335938 C 315.5 134.363281 315.257812 134.347656 315.019531 134.335938 C 316.132812 134.394531 315.179688 134.324219 314.84375 134.207031 C 316 134.605469 314.671875 134.070312 314.210938 133.957031 C 313.703125 133.835938 313.195312 133.714844 312.6875 133.59375 C 306.390625 132.078125 300.09375 130.558594 293.796875 129.046875 C 283.210938 126.5 272.628906 123.949219 262.046875 121.40625 C 250.558594 118.640625 239.066406 115.875 227.578125 113.113281 C 218.566406 110.945312 209.554688 108.777344 200.542969 106.605469 C 198.023438 106 195.507812 105.394531 192.984375 104.789062 C 192.410156 104.644531 191.832031 104.511719 191.253906 104.371094 C 191.160156 104.347656 191.066406 104.324219 190.96875 104.300781 C 191.128906 104.339844 192.035156 104.808594 191.433594 104.425781 C 192.246094 104.9375 191.671875 104.59375 191.460938 104.382812 C 190.875 103.785156 191.921875 105.089844 191.492188 104.386719 C 191.050781 103.675781 191.761719 105.214844 191.492188 104.429688 C 191.398438 104.171875 191.3125 103.382812 191.441406 104.515625 C 191.414062 104.277344 191.425781 104.039062 191.441406 103.800781 C 191.382812 104.914062 191.453125 103.957031 191.570312 103.625 C 191.511719 103.769531 191.449219 103.921875 191.394531 104.070312 C 192.292969 102.207031 191.921875 99.976562 190.027344 98.871094 C 188.335938 97.894531 185.710938 98.378906 184.8125 100.242188 Z M 184.8125 100.242188 " fill-opacity="1" fill-rule="nonzero"/><path fill="#231f20" d="M 183.851562 104.078125 C 183.410156 103.171875 183.746094 103.847656 183.820312 104.101562 C 184.054688 104.929688 183.769531 103.199219 183.816406 104.046875 C 183.828125 104.335938 183.675781 105.085938 183.867188 103.980469 C 183.824219 104.214844 183.75 104.441406 183.671875 104.660156 C 184.011719 103.691406 183.78125 104.347656 183.625 104.597656 C 184.136719 103.773438 183.824219 104.34375 183.605469 104.566406 C 183.019531 105.167969 184.320312 104.109375 183.59375 104.570312 C 184.046875 104.28125 184.523438 104.25 184.277344 104.3125 C 184.191406 104.332031 184.097656 104.355469 184.007812 104.375 C 183.4375 104.511719 182.871094 104.652344 182.304688 104.785156 C 179.800781 105.386719 177.296875 105.988281 174.796875 106.59375 C 165.804688 108.753906 156.816406 110.921875 147.824219 113.082031 C 136.339844 115.847656 124.855469 118.613281 113.367188 121.371094 C 102.769531 123.921875 92.171875 126.472656 81.574219 129.023438 C 75.25 130.546875 68.925781 132.066406 62.597656 133.59375 C 62.078125 133.714844 61.5625 133.839844 61.042969 133.964844 C 60.632812 134.0625 60.46875 134.140625 59.945312 134.394531 C 60.855469 133.953125 60.175781 134.292969 59.921875 134.367188 C 59.097656 134.597656 60.824219 134.316406 59.980469 134.359375 C 59.691406 134.375 58.941406 134.222656 60.042969 134.414062 C 59.8125 134.371094 59.585938 134.296875 59.363281 134.21875 C 60.335938 134.554688 59.675781 134.324219 59.429688 134.171875 C 60.253906 134.679688 59.683594 134.371094 59.460938 134.152344 C 58.859375 133.5625 59.914062 134.859375 59.457031 134.140625 C 59.144531 133.644531 59.496094 133.949219 58.738281 133.144531 C 57.476562 131.800781 56.210938 130.460938 54.949219 129.113281 C 47.894531 121.613281 40.839844 114.113281 33.785156 106.609375 C 26.75 99.125 19.714844 91.644531 12.675781 84.160156 C 11.433594 82.839844 10.195312 81.519531 8.957031 80.203125 C 10.074219 81.394531 9.832031 81.84375 9.578125 80.949219 C 9.34375 80.125 9.628906 81.851562 9.585938 81.007812 C 9.570312 80.71875 9.722656 79.96875 9.53125 81.070312 C 9.574219 80.839844 9.648438 80.613281 9.730469 80.390625 C 9.390625 81.363281 9.621094 80.703125 9.777344 80.453125 C 9.265625 81.277344 9.578125 80.707031 9.792969 80.488281 C 10.382812 79.886719 9.082031 80.941406 9.808594 80.484375 C 9.355469 80.773438 8.882812 80.804688 9.125 80.746094 C 9.214844 80.722656 9.304688 80.699219 9.394531 80.679688 C 9.964844 80.542969 10.53125 80.40625 11.101562 80.269531 C 17.574219 78.710938 24.046875 77.152344 30.523438 75.59375 C 41.183594 73.027344 51.84375 70.464844 62.503906 67.898438 C 73.972656 65.140625 85.433594 62.382812 96.898438 59.621094 C 105.785156 57.484375 114.667969 55.347656 123.554688 53.207031 C 125.972656 52.625 128.386719 52.042969 130.808594 51.460938 C 131.324219 51.335938 131.84375 51.214844 132.359375 51.085938 C 132.773438 50.988281 132.9375 50.914062 133.457031 50.65625 C 132.546875 51.097656 133.226562 50.757812 133.480469 50.6875 C 134.304688 50.453125 132.578125 50.738281 133.425781 50.691406 C 133.714844 50.679688 134.460938 50.832031 133.359375 50.640625 C 133.59375 50.679688 133.820312 50.761719 134.039062 50.835938 C 133.070312 50.5 133.726562 50.730469 133.976562 50.882812 C 133.15625 50.375 133.722656 50.683594 133.945312 50.902344 C 134.546875 51.492188 133.492188 50.191406 133.949219 50.914062 C 134.261719 51.410156 133.90625 51.105469 134.667969 51.910156 C 139.003906 56.523438 143.34375 61.136719 147.683594 65.75 C 155.636719 74.207031 163.589844 82.667969 171.542969 91.125 C 175.84375 95.699219 180.148438 100.273438 184.453125 104.847656 C 185.875 106.359375 188.402344 106.28125 189.832031 104.847656 C 191.335938 103.351562 191.25 100.984375 189.832031 99.472656 C 185.566406 94.9375 181.304688 90.398438 177.035156 85.863281 C 169.082031 77.40625 161.125 68.949219 153.175781 60.488281 C 148.796875 55.839844 144.425781 51.1875 140.050781 46.535156 C 141.390625 47.957031 139.664062 45.921875 139.644531 45.894531 C 139.183594 45.328125 138.613281 44.871094 138.011719 44.457031 C 136.722656 43.558594 135.210938 43.1875 133.664062 43.09375 C 132.929688 43.046875 132.167969 43.199219 131.457031 43.355469 C 131.21875 43.410156 130.984375 43.507812 130.757812 43.601562 C 130.453125 43.726562 130.152344 43.855469 129.847656 43.984375 C 130.539062 43.742188 130.769531 43.652344 130.527344 43.710938 C 130.503906 43.714844 130.476562 43.722656 130.453125 43.726562 C 130.027344 43.828125 129.601562 43.929688 129.175781 44.035156 C 126.914062 44.578125 124.652344 45.125 122.390625 45.667969 C 113.699219 47.757812 105.011719 49.847656 96.324219 51.941406 C 84.902344 54.691406 73.480469 57.4375 62.0625 60.1875 C 51.289062 62.777344 40.519531 65.367188 29.753906 67.960938 C 23.015625 69.582031 16.28125 71.203125 9.542969 72.824219 C 8.886719 72.984375 8.230469 73.140625 7.574219 73.296875 C 5.710938 73.746094 4.289062 75.074219 3.210938 76.617188 C 1.328125 79.3125 1.621094 83.492188 3.851562 85.867188 C 4.484375 86.542969 5.121094 87.214844 5.753906 87.890625 C 12.277344 94.828125 18.800781 101.765625 25.324219 108.703125 C 32.773438 116.625 40.222656 124.546875 47.671875 132.46875 C 49.472656 134.386719 51.273438 136.300781 53.074219 138.214844 C 53.171875 138.320312 53.269531 138.421875 53.367188 138.523438 C 52.96875 138.097656 52.726562 137.707031 53.027344 138.1875 C 53.289062 138.597656 53.617188 138.96875 53.921875 139.351562 C 54.371094 139.902344 55.027344 140.34375 55.59375 140.738281 C 56.828125 141.597656 58.511719 141.957031 59.984375 141.964844 C 60.71875 141.964844 61.484375 141.832031 62.191406 141.628906 C 62.628906 141.503906 63.203125 141.242188 63.5625 141.066406 C 62.824219 141.421875 62.644531 141.398438 62.882812 141.339844 C 62.914062 141.335938 62.9375 141.328125 62.964844 141.320312 C 63.117188 141.28125 63.273438 141.246094 63.429688 141.210938 C 68.726562 139.9375 74.023438 138.660156 79.320312 137.386719 C 89.445312 134.953125 99.570312 132.515625 109.695312 130.078125 C 121.265625 127.292969 132.839844 124.507812 144.410156 121.722656 C 154.042969 119.402344 163.679688 117.085938 173.316406 114.765625 C 177.628906 113.726562 181.945312 112.6875 186.261719 111.648438 C 187.832031 111.269531 189.175781 109.90625 190.066406 108.628906 C 191.828125 106.101562 191.722656 102.921875 190.425781 100.242188 C 189.523438 98.375 186.902344 97.894531 185.222656 98.878906 C 183.320312 99.988281 182.949219 102.214844 183.851562 104.078125 Z M 183.851562 104.078125 " fill-opacity="1" fill-rule="nonzero"/><path fill="#231f20" d="M 183.804688 168.722656 C 183.804688 171.300781 183.804688 173.875 183.804688 176.457031 C 183.804688 183.191406 183.804688 189.921875 183.804688 196.652344 C 183.804688 206.03125 183.804688 215.402344 183.804688 224.777344 C 183.804688 235.285156 183.804688 245.796875 183.804688 256.308594 C 183.804688 266.441406 183.804688 276.578125 183.804688 286.71875 C 183.804688 294.96875 183.804688 303.226562 183.804688 311.480469 C 183.804688 316.339844 183.804688 321.207031 183.804688 326.074219 C 183.804688 326.761719 183.804688 327.449219 183.804688 328.140625 C 183.804688 330.214844 185.539062 331.941406 187.609375 331.941406 C 189.683594 331.941406 191.414062 330.214844 191.414062 328.140625 C 191.414062 325.5625 191.414062 322.984375 191.414062 320.40625 C 191.414062 313.671875 191.414062 306.9375 191.414062 300.210938 C 191.414062 290.835938 191.414062 281.460938 191.414062 272.085938 C 191.414062 261.578125 191.414062 251.070312 191.414062 240.554688 C 191.414062 230.425781 191.414062 220.285156 191.414062 210.144531 C 191.414062 201.894531 191.414062 193.636719 191.414062 185.382812 C 191.414062 180.519531 191.414062 175.652344 191.414062 170.789062 C 191.414062 170.097656 191.414062 169.410156 191.414062 168.722656 C 191.414062 166.648438 189.683594 164.917969 187.609375 164.917969 C 185.539062 164.917969 183.804688 166.648438 183.804688 168.722656 Z M 183.804688 168.722656 " fill-opacity="1" fill-rule="nonzero"/></svg>