<svg xmlns="http://www.w3.org/2000/svg" xmlns:xlink="http://www.w3.org/1999/xlink" width="500" zoomAndPan="magnify" viewBox="0 0 375 374.999991" height="500" preserveAspectRatio="xMidYMid meet" version="1.0"><path fill="#000000" d="M 100 237.5 L 291.898438 237.5 C 293.417969 237.503906 294.933594 237.445312 296.445312 237.324219 C 297.957031 237.199219 299.460938 237.015625 300.957031 236.765625 C 302.453125 236.515625 303.9375 236.203125 305.410156 235.828125 C 306.878906 235.453125 308.332031 235.015625 309.761719 234.519531 C 311.195312 234.019531 312.605469 233.460938 313.992188 232.84375 C 315.378906 232.226562 316.738281 231.554688 318.066406 230.824219 C 319.394531 230.089844 320.691406 229.304688 321.953125 228.464844 C 323.21875 227.621094 324.441406 226.730469 325.628906 225.785156 C 326.816406 224.839844 327.960938 223.847656 329.066406 222.804688 C 330.167969 221.761719 331.226562 220.675781 332.238281 219.546875 C 333.25 218.414062 334.210938 217.242188 335.125 216.03125 C 336.039062 214.820312 336.898438 213.570312 337.703125 212.285156 C 338.511719 211 339.261719 209.683594 339.960938 208.335938 C 340.65625 206.988281 341.292969 205.613281 341.875 204.210938 C 342.453125 202.808594 342.972656 201.386719 343.433594 199.9375 C 343.890625 198.492188 344.289062 197.03125 344.625 195.550781 L 374.6875 65.3125 C 374.792969 64.855469 374.871094 64.394531 374.925781 63.929688 C 374.980469 63.464844 375.007812 62.996094 375.007812 62.527344 C 375.007812 62.058594 374.984375 61.589844 374.933594 61.125 C 374.878906 60.660156 374.804688 60.195312 374.699219 59.738281 C 374.597656 59.28125 374.46875 58.832031 374.3125 58.390625 C 374.160156 57.945312 373.980469 57.515625 373.777344 57.089844 C 373.574219 56.667969 373.347656 56.257812 373.101562 55.863281 C 372.851562 55.464844 372.582031 55.082031 372.289062 54.714844 C 371.996094 54.347656 371.683594 54 371.351562 53.667969 C 371.023438 53.335938 370.671875 53.023438 370.308594 52.730469 C 369.941406 52.4375 369.558594 52.167969 369.160156 51.917969 C 368.765625 51.667969 368.355469 51.441406 367.933594 51.238281 C 367.511719 51.035156 367.078125 50.855469 366.636719 50.703125 C 366.195312 50.546875 365.742188 50.417969 365.285156 50.3125 C 364.828125 50.207031 364.367188 50.128906 363.902344 50.078125 C 363.4375 50.027344 362.96875 50 362.5 50 L 71.664062 50 L 62.175781 9.636719 C 62.015625 8.957031 61.800781 8.292969 61.527344 7.648438 C 61.253906 7.003906 60.933594 6.386719 60.558594 5.796875 C 60.183594 5.203125 59.757812 4.648438 59.292969 4.128906 C 58.824219 3.609375 58.3125 3.132812 57.765625 2.699219 C 57.21875 2.265625 56.636719 1.878906 56.023438 1.542969 C 55.410156 1.207031 54.773438 0.921875 54.109375 0.691406 C 53.449219 0.464844 52.773438 0.289062 52.085938 0.175781 C 51.394531 0.0585938 50.699219 0 50 0 L 12.5 0 C 11.679688 0 10.867188 0.078125 10.0625 0.238281 C 9.257812 0.398438 8.476562 0.636719 7.714844 0.953125 C 6.957031 1.265625 6.238281 1.652344 5.554688 2.105469 C 4.871094 2.5625 4.242188 3.082031 3.660156 3.660156 C 3.082031 4.242188 2.5625 4.871094 2.105469 5.554688 C 1.652344 6.238281 1.265625 6.957031 0.953125 7.714844 C 0.636719 8.476562 0.398438 9.257812 0.238281 10.0625 C 0.078125 10.867188 0 11.679688 0 12.5 C 0 13.320312 0.078125 14.132812 0.238281 14.9375 C 0.398438 15.742188 0.636719 16.523438 0.953125 17.285156 C 1.265625 18.042969 1.652344 18.761719 2.105469 19.445312 C 2.5625 20.128906 3.082031 20.757812 3.660156 21.339844 C 4.242188 21.917969 4.871094 22.4375 5.554688 22.894531 C 6.238281 23.347656 6.957031 23.734375 7.714844 24.046875 C 8.476562 24.363281 9.257812 24.601562 10.0625 24.761719 C 10.867188 24.921875 11.679688 25 12.5 25 L 40.101562 25 L 85 215.699219 C 84.027344 216.128906 83.074219 216.601562 82.140625 217.113281 C 81.207031 217.621094 80.300781 218.171875 79.414062 218.761719 C 78.527344 219.347656 77.667969 219.972656 76.835938 220.636719 C 76 221.296875 75.199219 221.992188 74.425781 222.722656 C 73.652344 223.453125 72.910156 224.214844 72.199219 225.007812 C 71.492188 225.800781 70.816406 226.621094 70.179688 227.472656 C 69.539062 228.320312 68.9375 229.199219 68.375 230.097656 C 67.808594 231 67.285156 231.925781 66.796875 232.871094 C 66.3125 233.816406 65.867188 234.78125 65.464844 235.765625 C 65.058594 236.75 64.699219 237.75 64.378906 238.765625 C 64.0625 239.78125 63.785156 240.804688 63.554688 241.84375 C 63.324219 242.882812 63.136719 243.929688 62.996094 244.984375 C 62.851562 246.035156 62.753906 247.09375 62.703125 248.15625 C 62.648438 249.21875 62.644531 250.28125 62.679688 251.34375 C 62.71875 252.40625 62.800781 253.46875 62.929688 254.523438 C 63.058594 255.578125 63.230469 256.628906 63.449219 257.667969 C 63.667969 258.710938 63.929688 259.742188 64.234375 260.757812 C 64.539062 261.777344 64.886719 262.78125 65.277344 263.773438 C 65.667969 264.761719 66.101562 265.730469 66.574219 266.683594 C 67.046875 267.636719 67.558594 268.566406 68.113281 269.476562 C 68.664062 270.386719 69.253906 271.269531 69.882812 272.128906 C 70.507812 272.988281 71.171875 273.816406 71.871094 274.621094 C 72.570312 275.421875 73.300781 276.195312 74.0625 276.933594 C 74.828125 277.671875 75.621094 278.378906 76.445312 279.050781 C 77.269531 279.726562 78.121094 280.363281 79 280.960938 C 79.878906 281.5625 80.78125 282.125 81.707031 282.648438 C 82.632812 283.171875 83.578125 283.652344 84.546875 284.097656 C 85.511719 284.539062 86.496094 284.941406 87.496094 285.296875 C 88.5 285.65625 89.511719 285.972656 90.542969 286.246094 C 91.570312 286.519531 92.609375 286.746094 93.65625 286.933594 C 94.703125 287.117188 95.757812 287.257812 96.816406 287.351562 C 97.875 287.445312 98.9375 287.496094 100 287.5 L 337.5 287.5 C 338.320312 287.5 339.132812 287.417969 339.9375 287.257812 C 340.742188 287.101562 341.523438 286.863281 342.285156 286.546875 C 343.042969 286.234375 343.761719 285.847656 344.445312 285.394531 C 345.128906 284.9375 345.757812 284.417969 346.339844 283.839844 C 346.917969 283.257812 347.4375 282.628906 347.894531 281.945312 C 348.347656 281.261719 348.734375 280.542969 349.046875 279.785156 C 349.363281 279.023438 349.601562 278.242188 349.757812 277.4375 C 349.917969 276.632812 350 275.820312 350 275 C 350 274.179688 349.917969 273.367188 349.757812 272.5625 C 349.601562 271.757812 349.363281 270.976562 349.046875 270.214844 C 348.734375 269.457031 348.347656 268.738281 347.894531 268.054688 C 347.4375 267.371094 346.917969 266.742188 346.339844 266.160156 C 345.757812 265.582031 345.128906 265.0625 344.445312 264.605469 C 343.761719 264.152344 343.042969 263.765625 342.285156 263.453125 C 341.523438 263.136719 340.742188 262.898438 339.9375 262.738281 C 339.132812 262.578125 338.320312 262.5 337.5 262.5 L 100 262.5 C 99.179688 262.5 98.367188 262.417969 97.5625 262.261719 C 96.757812 262.101562 95.976562 261.863281 95.214844 261.546875 C 94.457031 261.234375 93.738281 260.847656 93.054688 260.394531 C 92.371094 259.9375 91.742188 259.417969 91.160156 258.839844 C 90.582031 258.257812 90.0625 257.628906 89.605469 256.945312 C 89.152344 256.261719 88.765625 255.542969 88.453125 254.785156 C 88.136719 254.023438 87.898438 253.242188 87.738281 252.4375 C 87.578125 251.632812 87.5 250.820312 87.5 250 C 87.5 249.179688 87.578125 248.367188 87.738281 247.5625 C 87.898438 246.757812 88.136719 245.976562 88.453125 245.214844 C 88.765625 244.457031 89.152344 243.738281 89.605469 243.054688 C 90.0625 242.371094 90.582031 241.742188 91.160156 241.160156 C 91.742188 240.582031 92.371094 240.0625 93.054688 239.605469 C 93.738281 239.152344 94.457031 238.765625 95.214844 238.453125 C 95.976562 238.136719 96.757812 237.898438 97.5625 237.738281 C 98.367188 237.578125 99.179688 237.5 100 237.5 Z M 346.789062 75 L 320.261719 189.925781 C 319.902344 191.519531 319.410156 193.074219 318.785156 194.585938 C 318.160156 196.097656 317.414062 197.546875 316.542969 198.933594 C 315.675781 200.320312 314.695312 201.621094 313.605469 202.839844 C 312.515625 204.058594 311.328125 205.179688 310.050781 206.199219 C 308.769531 207.21875 307.414062 208.121094 305.980469 208.910156 C 304.546875 209.699219 303.058594 210.363281 301.511719 210.898438 C 299.96875 211.433594 298.386719 211.835938 296.773438 212.105469 C 295.160156 212.375 293.535156 212.507812 291.898438 212.5 L 109.898438 212.5 L 77.5 75 Z M 346.789062 75 " fill-opacity="1" fill-rule="nonzero"/><path fill="#000000" d="M 125 300 C 123.773438 300 122.546875 300.058594 121.324219 300.179688 C 120.101562 300.300781 118.886719 300.480469 117.683594 300.71875 C 116.480469 300.960938 115.289062 301.257812 114.113281 301.613281 C 112.9375 301.972656 111.785156 302.382812 110.648438 302.855469 C 109.515625 303.324219 108.40625 303.847656 107.324219 304.429688 C 106.238281 305.007812 105.1875 305.636719 104.167969 306.320312 C 103.144531 307.003906 102.160156 307.734375 101.210938 308.511719 C 100.261719 309.292969 99.351562 310.113281 98.484375 310.984375 C 97.613281 311.851562 96.792969 312.761719 96.011719 313.710938 C 95.234375 314.660156 94.503906 315.644531 93.820312 316.667969 C 93.136719 317.6875 92.507812 318.738281 91.929688 319.824219 C 91.347656 320.90625 90.824219 322.015625 90.355469 323.148438 C 89.882812 324.285156 89.472656 325.4375 89.113281 326.613281 C 88.757812 327.789062 88.460938 328.980469 88.21875 330.183594 C 87.980469 331.386719 87.800781 332.601562 87.679688 333.824219 C 87.558594 335.046875 87.5 336.273438 87.5 337.5 C 87.5 338.726562 87.558594 339.953125 87.679688 341.175781 C 87.800781 342.398438 87.980469 343.609375 88.21875 344.816406 C 88.460938 346.019531 88.757812 347.210938 89.113281 348.386719 C 89.472656 349.5625 89.882812 350.714844 90.355469 351.851562 C 90.824219 352.984375 91.347656 354.09375 91.929688 355.175781 C 92.507812 356.261719 93.136719 357.3125 93.820312 358.332031 C 94.503906 359.355469 95.234375 360.339844 96.011719 361.289062 C 96.792969 362.238281 97.613281 363.148438 98.484375 364.015625 C 99.351562 364.886719 100.261719 365.707031 101.210938 366.488281 C 102.160156 367.265625 103.144531 367.996094 104.167969 368.679688 C 105.1875 369.363281 106.238281 369.992188 107.324219 370.570312 C 108.40625 371.152344 109.515625 371.675781 110.648438 372.144531 C 111.785156 372.617188 112.9375 373.027344 114.113281 373.386719 C 115.289062 373.742188 116.480469 374.039062 117.683594 374.28125 C 118.886719 374.519531 120.101562 374.699219 121.324219 374.820312 C 122.546875 374.941406 123.773438 375 125 375 C 126.226562 375 127.453125 374.941406 128.675781 374.820312 C 129.898438 374.699219 131.109375 374.519531 132.316406 374.28125 C 133.519531 374.039062 134.710938 373.742188 135.886719 373.386719 C 137.0625 373.027344 138.214844 372.617188 139.351562 372.144531 C 140.484375 371.675781 141.59375 371.152344 142.675781 370.570312 C 143.761719 369.992188 144.8125 369.363281 145.832031 368.679688 C 146.855469 367.996094 147.839844 367.265625 148.789062 366.488281 C 149.738281 365.707031 150.648438 364.886719 151.515625 364.015625 C 152.386719 363.148438 153.207031 362.238281 153.988281 361.289062 C 154.765625 360.339844 155.496094 359.355469 156.179688 358.332031 C 156.863281 357.3125 157.492188 356.261719 158.070312 355.175781 C 158.652344 354.09375 159.175781 352.984375 159.644531 351.851562 C 160.117188 350.714844 160.527344 349.5625 160.886719 348.386719 C 161.242188 347.210938 161.539062 346.019531 161.78125 344.816406 C 162.019531 343.609375 162.199219 342.398438 162.320312 341.175781 C 162.441406 339.953125 162.5 338.726562 162.5 337.5 C 162.5 336.273438 162.441406 335.046875 162.320312 333.824219 C 162.199219 332.601562 162.019531 331.386719 161.78125 330.183594 C 161.539062 328.980469 161.242188 327.789062 160.886719 326.613281 C 160.527344 325.4375 160.117188 324.285156 159.644531 323.148438 C 159.175781 322.015625 158.652344 320.90625 158.070312 319.824219 C 157.492188 318.738281 156.863281 317.6875 156.179688 316.667969 C 155.496094 315.644531 154.765625 314.660156 153.988281 313.710938 C 153.207031 312.761719 152.386719 311.851562 151.515625 310.984375 C 150.648438 310.113281 149.738281 309.292969 148.789062 308.511719 C 147.839844 307.734375 146.855469 307.003906 145.832031 306.320312 C 144.8125 305.636719 143.761719 305.007812 142.675781 304.429688 C 141.59375 303.847656 140.484375 303.324219 139.351562 302.855469 C 138.214844 302.382812 137.0625 301.972656 135.886719 301.613281 C 134.710938 301.257812 133.519531 300.960938 132.316406 300.71875 C 131.109375 300.480469 129.898438 300.300781 128.675781 300.179688 C 127.453125 300.058594 126.226562 300 125 300 Z M 125 350 C 124.179688 350 123.367188 349.917969 122.5625 349.757812 C 121.757812 349.601562 120.976562 349.363281 120.214844 349.046875 C 119.457031 348.734375 118.738281 348.347656 118.054688 347.894531 C 117.371094 347.4375 116.742188 346.917969 116.160156 346.339844 C 115.582031 345.757812 115.0625 345.128906 114.605469 344.445312 C 114.152344 343.761719 113.765625 343.042969 113.453125 342.285156 C 113.136719 341.523438 112.898438 340.742188 112.738281 339.9375 C 112.578125 339.132812 112.5 338.320312 112.5 337.5 C 112.5 336.679688 112.578125 335.867188 112.738281 335.0625 C 112.898438 334.257812 113.136719 333.476562 113.453125 332.714844 C 113.765625 331.957031 114.152344 331.238281 114.605469 330.554688 C 115.0625 329.871094 115.582031 329.242188 116.160156 328.660156 C 116.742188 328.082031 117.371094 327.5625 118.054688 327.105469 C 118.738281 326.652344 119.457031 326.265625 120.214844 325.953125 C 120.976562 325.636719 121.757812 325.398438 122.5625 325.238281 C 123.367188 325.078125 124.179688 325 125 325 C 125.820312 325 126.632812 325.078125 127.4375 325.238281 C 128.242188 325.398438 129.023438 325.636719 129.785156 325.953125 C 130.542969 326.265625 131.261719 326.652344 131.945312 327.105469 C 132.628906 327.5625 133.257812 328.082031 133.839844 328.660156 C 134.417969 329.242188 134.9375 329.871094 135.394531 330.554688 C 135.847656 331.238281 136.234375 331.957031 136.546875 332.714844 C 136.863281 333.476562 137.101562 334.257812 137.261719 335.0625 C 137.417969 335.867188 137.5 336.679688 137.5 337.5 C 137.5 338.320312 137.417969 339.132812 137.261719 339.9375 C 137.101562 340.742188 136.863281 341.523438 136.546875 342.285156 C 136.234375 343.042969 135.847656 343.761719 135.394531 344.445312 C 134.9375 345.128906 134.417969 345.757812 133.839844 346.339844 C 133.257812 346.917969 132.628906 347.4375 131.945312 347.894531 C 131.261719 348.347656 130.542969 348.734375 129.785156 349.046875 C 129.023438 349.363281 128.242188 349.601562 127.4375 349.757812 C 126.632812 349.917969 125.820312 350 125 350 Z M 125 350 " fill-opacity="1" fill-rule="nonzero"/><path fill="#000000" d="M 275 300 C 273.773438 300 272.546875 300.058594 271.324219 300.179688 C 270.101562 300.300781 268.886719 300.480469 267.683594 300.71875 C 266.480469 300.960938 265.289062 301.257812 264.113281 301.613281 C 262.9375 301.972656 261.785156 302.382812 260.648438 302.855469 C 259.515625 303.324219 258.40625 303.847656 257.324219 304.429688 C 256.238281 305.007812 255.1875 305.636719 254.167969 306.320312 C 253.144531 307.003906 252.160156 307.734375 251.210938 308.511719 C 250.261719 309.292969 249.351562 310.113281 248.484375 310.984375 C 247.613281 311.851562 246.792969 312.761719 246.011719 313.710938 C 245.234375 314.660156 244.503906 315.644531 243.820312 316.667969 C 243.136719 317.6875 242.507812 318.738281 241.929688 319.824219 C 241.347656 320.90625 240.824219 322.015625 240.355469 323.148438 C 239.882812 324.285156 239.472656 325.4375 239.113281 326.613281 C 238.757812 327.789062 238.460938 328.980469 238.21875 330.183594 C 237.980469 331.386719 237.800781 332.601562 237.679688 333.824219 C 237.558594 335.046875 237.5 336.273438 237.5 337.5 C 237.5 338.726562 237.558594 339.953125 237.679688 341.175781 C 237.800781 342.398438 237.980469 343.609375 238.21875 344.816406 C 238.460938 346.019531 238.757812 347.210938 239.113281 348.386719 C 239.472656 349.5625 239.882812 350.714844 240.355469 351.851562 C 240.824219 352.984375 241.347656 354.09375 241.929688 355.175781 C 242.507812 356.261719 243.136719 357.3125 243.820312 358.332031 C 244.503906 359.355469 245.234375 360.339844 246.011719 361.289062 C 246.792969 362.238281 247.613281 363.148438 248.484375 364.015625 C 249.351562 364.886719 250.261719 365.707031 251.210938 366.488281 C 252.160156 367.265625 253.144531 367.996094 254.167969 368.679688 C 255.1875 369.363281 256.238281 369.992188 257.324219 370.570312 C 258.40625 371.152344 259.515625 371.675781 260.648438 372.144531 C 261.785156 372.617188 262.9375 373.027344 264.113281 373.386719 C 265.289062 373.742188 266.480469 374.039062 267.683594 374.28125 C 268.886719 374.519531 270.101562 374.699219 271.324219 374.820312 C 272.546875 374.941406 273.773438 375 275 375 C 276.226562 375 277.453125 374.941406 278.675781 374.820312 C 279.898438 374.699219 281.109375 374.519531 282.316406 374.28125 C 283.519531 374.039062 284.710938 373.742188 285.886719 373.386719 C 287.0625 373.027344 288.214844 372.617188 289.351562 372.144531 C 290.484375 371.675781 291.59375 371.152344 292.675781 370.570312 C 293.761719 369.992188 294.8125 369.363281 295.832031 368.679688 C 296.855469 367.996094 297.839844 367.265625 298.789062 366.488281 C 299.738281 365.707031 300.648438 364.886719 301.515625 364.015625 C 302.386719 363.148438 303.207031 362.238281 303.988281 361.289062 C 304.765625 360.339844 305.496094 359.355469 306.179688 358.332031 C 306.863281 357.3125 307.492188 356.261719 308.070312 355.175781 C 308.652344 354.09375 309.175781 352.984375 309.644531 351.851562 C 310.117188 350.714844 310.527344 349.5625 310.886719 348.386719 C 311.242188 347.210938 311.539062 346.019531 311.78125 344.816406 C 312.019531 343.609375 312.199219 342.398438 312.320312 341.175781 C 312.441406 339.953125 312.5 338.726562 312.5 337.5 C 312.5 336.273438 312.441406 335.046875 312.320312 333.824219 C 312.199219 332.601562 312.019531 331.386719 311.78125 330.183594 C 311.539062 328.980469 311.242188 327.789062 310.886719 326.613281 C 310.527344 325.4375 310.117188 324.285156 309.644531 323.148438 C 309.175781 322.015625 308.652344 320.90625 308.070312 319.824219 C 307.492188 318.738281 306.863281 317.6875 306.179688 316.667969 C 305.496094 315.644531 304.765625 314.660156 303.988281 313.710938 C 303.207031 312.761719 302.386719 311.851562 301.515625 310.984375 C 300.648438 310.113281 299.738281 309.292969 298.789062 308.511719 C 297.839844 307.734375 296.855469 307.003906 295.832031 306.320312 C 294.8125 305.636719 293.761719 305.007812 292.675781 304.429688 C 291.59375 303.847656 290.484375 303.324219 289.351562 302.855469 C 288.214844 302.382812 287.0625 301.972656 285.886719 301.613281 C 284.710938 301.257812 283.519531 300.960938 282.316406 300.71875 C 281.109375 300.480469 279.898438 300.300781 278.675781 300.179688 C 277.453125 300.058594 276.226562 300 275 300 Z M 275 350 C 274.179688 350 273.367188 349.917969 272.5625 349.757812 C 271.757812 349.601562 270.976562 349.363281 270.214844 349.046875 C 269.457031 348.734375 268.738281 348.347656 268.054688 347.894531 C 267.371094 347.4375 266.742188 346.917969 266.160156 346.339844 C 265.582031 345.757812 265.0625 345.128906 264.605469 344.445312 C 264.152344 343.761719 263.765625 343.042969 263.453125 342.285156 C 263.136719 341.523438 262.898438 340.742188 262.738281 339.9375 C 262.578125 339.132812 262.5 338.320312 262.5 337.5 C 262.5 336.679688 262.578125 335.867188 262.738281 335.0625 C 262.898438 334.257812 263.136719 333.476562 263.453125 332.714844 C 263.765625 331.957031 264.152344 331.238281 264.605469 330.554688 C 265.0625 329.871094 265.582031 329.242188 266.160156 328.660156 C 266.742188 328.082031 267.371094 327.5625 268.054688 327.105469 C 268.738281 326.652344 269.457031 326.265625 270.214844 325.953125 C 270.976562 325.636719 271.757812 325.398438 272.5625 325.238281 C 273.367188 325.078125 274.179688 325 275 325 C 275.820312 325 276.632812 325.078125 277.4375 325.238281 C 278.242188 325.398438 279.023438 325.636719 279.785156 325.953125 C 280.542969 326.265625 281.261719 326.652344 281.945312 327.105469 C 282.628906 327.5625 283.257812 328.082031 283.839844 328.660156 C 284.417969 329.242188 284.9375 329.871094 285.394531 330.554688 C 285.847656 331.238281 286.234375 331.957031 286.546875 332.714844 C 286.863281 333.476562 287.101562 334.257812 287.261719 335.0625 C 287.417969 335.867188 287.5 336.679688 287.5 337.5 C 287.5 338.320312 287.417969 339.132812 287.257812 339.9375 C 287.101562 340.742188 286.863281 341.523438 286.546875 342.285156 C 286.234375 343.042969 285.847656 343.761719 285.394531 344.445312 C 284.9375 345.128906 284.417969 345.757812 283.839844 346.339844 C 283.257812 346.917969 282.628906 347.4375 281.945312 347.894531 C 281.261719 348.347656 280.542969 348.734375 279.785156 349.046875 C 279.023438 349.363281 278.242188 349.601562 277.4375 349.757812 C 276.632812 349.917969 275.820312 350 275 350 Z M 275 350 " fill-opacity="1" fill-rule="nonzero"/></svg>