<svg xmlns="http://www.w3.org/2000/svg" xmlns:xlink="http://www.w3.org/1999/xlink" width="500" zoomAndPan="magnify" viewBox="0 0 375 374.999991" height="500" preserveAspectRatio="xMidYMid meet" version="1.0"><path fill="#000000" d="M 375 187.5 C 375 190.570312 374.925781 193.636719 374.773438 196.699219 C 374.625 199.765625 374.398438 202.824219 374.097656 205.878906 C 373.796875 208.933594 373.421875 211.976562 372.96875 215.011719 C 372.519531 218.046875 371.996094 221.070312 371.398438 224.078125 C 370.796875 227.089844 370.125 230.082031 369.378906 233.058594 C 368.636719 236.035156 367.816406 238.992188 366.925781 241.929688 C 366.035156 244.863281 365.074219 247.777344 364.039062 250.667969 C 363.003906 253.554688 361.902344 256.417969 360.726562 259.253906 C 359.554688 262.089844 358.308594 264.894531 356.996094 267.667969 C 355.6875 270.441406 354.308594 273.179688 352.859375 275.886719 C 351.414062 278.59375 349.902344 281.261719 348.324219 283.894531 C 346.746094 286.527344 345.105469 289.117188 343.402344 291.667969 C 341.695312 294.222656 339.929688 296.730469 338.101562 299.195312 C 336.273438 301.660156 334.386719 304.078125 332.4375 306.449219 C 330.492188 308.820312 328.488281 311.144531 326.429688 313.417969 C 324.367188 315.691406 322.253906 317.914062 320.082031 320.082031 C 317.914062 322.253906 315.691406 324.367188 313.417969 326.429688 C 311.144531 328.488281 308.820312 330.492188 306.449219 332.4375 C 304.078125 334.386719 301.660156 336.273438 299.195312 338.101562 C 296.730469 339.929688 294.222656 341.695312 291.667969 343.402344 C 289.117188 345.105469 286.527344 346.746094 283.894531 348.324219 C 281.261719 349.902344 278.59375 351.414062 275.886719 352.859375 C 273.179688 354.308594 270.441406 355.6875 267.667969 356.996094 C 264.894531 358.308594 262.089844 359.554688 259.253906 360.726562 C 256.417969 361.902344 253.554688 363.003906 250.667969 364.039062 C 247.777344 365.074219 244.863281 366.035156 241.929688 366.925781 C 238.992188 367.816406 236.035156 368.636719 233.058594 369.378906 C 230.082031 370.125 227.089844 370.796875 224.078125 371.398438 C 221.070312 371.996094 218.046875 372.519531 215.011719 372.96875 C 211.976562 373.421875 208.933594 373.796875 205.878906 374.097656 C 202.824219 374.398438 199.765625 374.625 196.699219 374.773438 C 193.636719 374.925781 190.570312 375 187.5 375 C 184.429688 375 181.363281 374.925781 178.300781 374.773438 C 175.234375 374.625 172.175781 374.398438 169.121094 374.097656 C 166.066406 373.796875 163.023438 373.421875 159.988281 372.96875 C 156.953125 372.519531 153.929688 371.996094 150.921875 371.398438 C 147.910156 370.796875 144.917969 370.125 141.941406 369.378906 C 138.964844 368.636719 136.007812 367.816406 133.070312 366.925781 C 130.136719 366.035156 127.222656 365.074219 124.332031 364.039062 C 121.445312 363.003906 118.582031 361.902344 115.746094 360.726562 C 112.910156 359.554688 110.105469 358.308594 107.332031 356.996094 C 104.558594 355.6875 101.820312 354.308594 99.113281 352.859375 C 96.40625 351.414062 93.738281 349.902344 91.105469 348.324219 C 88.472656 346.746094 85.882812 345.105469 83.332031 343.402344 C 80.777344 341.695312 78.269531 339.929688 75.804688 338.101562 C 73.339844 336.273438 70.921875 334.386719 68.550781 332.4375 C 66.179688 330.492188 63.855469 328.488281 61.582031 326.429688 C 59.308594 324.367188 57.085938 322.253906 54.917969 320.082031 C 52.746094 317.914062 50.632812 315.691406 48.570312 313.417969 C 46.511719 311.144531 44.507812 308.820312 42.558594 306.449219 C 40.613281 304.078125 38.726562 301.660156 36.898438 299.195312 C 35.070312 296.730469 33.304688 294.222656 31.597656 291.667969 C 29.894531 289.117188 28.253906 286.527344 26.675781 283.894531 C 25.097656 281.261719 23.585938 278.59375 22.140625 275.886719 C 20.691406 273.179688 19.3125 270.441406 18.003906 267.667969 C 16.691406 264.894531 15.445312 262.089844 14.273438 259.253906 C 13.097656 256.417969 11.996094 253.554688 10.960938 250.667969 C 9.925781 247.777344 8.964844 244.863281 8.074219 241.929688 C 7.183594 238.992188 6.363281 236.035156 5.617188 233.058594 C 4.875 230.082031 4.203125 227.089844 3.601562 224.078125 C 3.003906 221.070312 2.480469 218.046875 2.03125 215.011719 C 1.578125 211.976562 1.203125 208.933594 0.902344 205.878906 C 0.601562 202.824219 0.375 199.765625 0.226562 196.699219 C 0.0742188 193.636719 0 190.570312 0 187.5 C 0 184.429688 0.0742188 181.363281 0.226562 178.300781 C 0.375 175.234375 0.601562 172.175781 0.902344 169.121094 C 1.203125 166.066406 1.578125 163.023438 2.03125 159.988281 C 2.480469 156.953125 3.003906 153.929688 3.601562 150.921875 C 4.203125 147.910156 4.875 144.917969 5.617188 141.941406 C 6.363281 138.964844 7.183594 136.007812 8.074219 133.070312 C 8.964844 130.136719 9.925781 127.222656 10.960938 124.332031 C 11.996094 121.445312 13.097656 118.582031 14.273438 115.746094 C 15.445312 112.910156 16.691406 110.105469 18.003906 107.332031 C 19.3125 104.558594 20.691406 101.820312 22.140625 99.113281 C 23.585938 96.40625 25.097656 93.738281 26.675781 91.105469 C 28.253906 88.472656 29.894531 85.882812 31.597656 83.332031 C 33.304688 80.777344 35.070312 78.269531 36.898438 75.804688 C 38.726562 73.339844 40.613281 70.921875 42.558594 68.550781 C 44.507812 66.179688 46.511719 63.855469 48.570312 61.582031 C 50.632812 59.308594 52.746094 57.085938 54.917969 54.917969 C 57.085938 52.746094 59.308594 50.632812 61.582031 48.570312 C 63.855469 46.511719 66.179688 44.507812 68.550781 42.558594 C 70.921875 40.613281 73.339844 38.726562 75.804688 36.898438 C 78.269531 35.070312 80.777344 33.304688 83.332031 31.597656 C 85.882812 29.894531 88.472656 28.253906 91.105469 26.675781 C 93.738281 25.097656 96.40625 23.585938 99.113281 22.140625 C 101.820312 20.691406 104.558594 19.3125 107.332031 18.003906 C 110.105469 16.691406 112.910156 15.445312 115.746094 14.273438 C 118.582031 13.097656 121.445312 11.996094 124.332031 10.960938 C 127.222656 9.925781 130.136719 8.964844 133.070312 8.074219 C 136.007812 7.183594 138.964844 6.363281 141.941406 5.617188 C 144.917969 4.875 147.910156 4.203125 150.921875 3.601562 C 153.929688 3.003906 156.953125 2.480469 159.988281 2.03125 C 163.023438 1.578125 166.066406 1.203125 169.121094 0.902344 C 172.175781 0.601562 175.234375 0.375 178.300781 0.226562 C 181.363281 0.0742188 184.429688 0 187.5 0 C 232.144531 0 271.070312 10.355469 321.429688 58.75 L 321.429688 29.464844 C 321.429688 28.878906 321.484375 28.296875 321.601562 27.722656 C 321.714844 27.148438 321.882812 26.589844 322.109375 26.046875 C 322.332031 25.503906 322.609375 24.992188 322.933594 24.503906 C 323.257812 24.015625 323.628906 23.566406 324.042969 23.152344 C 324.457031 22.734375 324.910156 22.367188 325.398438 22.039062 C 325.882812 21.714844 326.398438 21.441406 326.941406 21.214844 C 327.480469 20.992188 328.039062 20.820312 328.613281 20.707031 C 329.191406 20.59375 329.769531 20.535156 330.355469 20.535156 C 330.941406 20.535156 331.523438 20.59375 332.097656 20.707031 C 332.675781 20.820312 333.230469 20.992188 333.773438 21.214844 C 334.316406 21.441406 334.828125 21.714844 335.316406 22.039062 C 335.804688 22.367188 336.257812 22.734375 336.671875 23.152344 C 337.085938 23.566406 337.457031 24.015625 337.78125 24.503906 C 338.105469 24.992188 338.382812 25.503906 338.605469 26.046875 C 338.832031 26.589844 339 27.148438 339.113281 27.722656 C 339.226562 28.296875 339.285156 28.878906 339.285156 29.464844 L 339.285156 78.394531 C 339.285156 78.394531 339.285156 78.394531 339.285156 79.464844 C 339.320312 79.792969 339.339844 80.121094 339.339844 80.453125 C 339.339844 80.78125 339.320312 81.113281 339.28125 81.441406 C 339.242188 81.769531 339.1875 82.09375 339.109375 82.414062 C 339.035156 82.738281 338.941406 83.054688 338.832031 83.363281 C 338.722656 83.675781 338.59375 83.980469 338.449219 84.277344 C 338.304688 84.574219 338.140625 84.859375 337.964844 85.140625 C 337.785156 85.417969 337.59375 85.683594 337.386719 85.941406 C 337.175781 86.199219 336.953125 86.441406 336.71875 86.671875 C 336.484375 86.90625 336.234375 87.121094 335.976562 87.324219 C 335.714844 87.527344 335.445312 87.71875 335.164062 87.890625 C 334.878906 88.0625 334.589844 88.21875 334.289062 88.359375 C 333.992188 88.496094 333.683594 88.621094 333.371094 88.726562 C 333.058594 88.832031 332.742188 88.917969 332.417969 88.988281 C 332.09375 89.054688 331.769531 89.105469 331.441406 89.136719 C 331.109375 89.171875 330.78125 89.183594 330.449219 89.179688 C 330.121094 89.171875 329.792969 89.148438 329.464844 89.105469 L 279.464844 89.105469 C 278.878906 89.105469 278.296875 89.050781 277.722656 88.9375 C 277.148438 88.820312 276.589844 88.652344 276.046875 88.425781 C 275.503906 88.203125 274.992188 87.929688 274.503906 87.601562 C 274.015625 87.277344 273.566406 86.90625 273.152344 86.492188 C 272.734375 86.078125 272.367188 85.625 272.039062 85.140625 C 271.714844 84.652344 271.441406 84.136719 271.214844 83.59375 C 270.992188 83.054688 270.820312 82.496094 270.707031 81.921875 C 270.59375 81.34375 270.535156 80.765625 270.535156 80.179688 C 270.535156 79.59375 270.59375 79.011719 270.707031 78.4375 C 270.820312 77.863281 270.992188 77.304688 271.214844 76.761719 C 271.441406 76.21875 271.714844 75.707031 272.039062 75.21875 C 272.367188 74.730469 272.734375 74.28125 273.152344 73.863281 C 273.566406 73.449219 274.015625 73.082031 274.503906 72.753906 C 274.992188 72.429688 275.503906 72.152344 276.046875 71.929688 C 276.589844 71.707031 277.148438 71.535156 277.722656 71.421875 C 278.296875 71.308594 278.878906 71.25 279.464844 71.25 L 308.929688 71.25 C 262.855469 27.144531 227.679688 17.679688 187.5 17.679688 C 184.722656 17.679688 181.949219 17.746094 179.179688 17.882812 C 176.40625 18.019531 173.636719 18.222656 170.875 18.496094 C 168.113281 18.765625 165.359375 19.105469 162.613281 19.515625 C 159.867188 19.921875 157.132812 20.394531 154.410156 20.9375 C 151.6875 21.476562 148.980469 22.085938 146.289062 22.761719 C 143.597656 23.433594 140.921875 24.175781 138.265625 24.980469 C 135.609375 25.785156 132.976562 26.65625 130.359375 27.589844 C 127.746094 28.527344 125.160156 29.523438 122.59375 30.585938 C 120.03125 31.648438 117.492188 32.773438 114.984375 33.960938 C 112.472656 35.144531 109.996094 36.394531 107.546875 37.699219 C 105.097656 39.007812 102.683594 40.375 100.304688 41.804688 C 97.921875 43.230469 95.578125 44.714844 93.269531 46.257812 C 90.960938 47.796875 88.691406 49.394531 86.464844 51.046875 C 84.234375 52.703125 82.046875 54.410156 79.898438 56.167969 C 77.753906 57.929688 75.652344 59.742188 73.59375 61.605469 C 71.539062 63.46875 69.527344 65.382812 67.566406 67.34375 C 65.601562 69.308594 63.6875 71.316406 61.824219 73.371094 C 59.960938 75.429688 58.148438 77.53125 56.386719 79.675781 C 54.625 81.820312 52.917969 84.007812 51.261719 86.238281 C 49.609375 88.464844 48.011719 90.734375 46.46875 93.042969 C 44.925781 95.351562 43.441406 97.695312 42.011719 100.074219 C 40.585938 102.453125 39.214844 104.867188 37.90625 107.316406 C 36.597656 109.765625 35.351562 112.242188 34.164062 114.75 C 32.976562 117.261719 31.851562 119.796875 30.789062 122.359375 C 29.726562 124.925781 28.726562 127.511719 27.789062 130.125 C 26.855469 132.738281 25.984375 135.375 25.175781 138.03125 C 24.371094 140.6875 23.628906 143.359375 22.953125 146.054688 C 22.277344 148.746094 21.667969 151.453125 21.128906 154.175781 C 20.585938 156.898438 20.109375 159.632812 19.703125 162.375 C 19.292969 165.121094 18.953125 167.875 18.679688 170.636719 C 18.40625 173.402344 18.203125 176.167969 18.0625 178.941406 C 17.925781 181.710938 17.859375 184.484375 17.855469 187.261719 C 17.855469 190.039062 17.921875 192.8125 18.058594 195.585938 C 18.195312 198.355469 18.398438 201.125 18.667969 203.886719 C 18.9375 206.648438 19.277344 209.402344 19.683594 212.148438 C 20.089844 214.894531 20.5625 217.628906 21.105469 220.351562 C 21.644531 223.074219 22.25 225.78125 22.925781 228.476562 C 23.597656 231.167969 24.335938 233.84375 25.140625 236.5 C 25.945312 239.15625 26.816406 241.789062 27.75 244.402344 C 28.683594 247.019531 29.679688 249.609375 30.742188 252.171875 C 31.804688 254.738281 32.925781 257.273438 34.113281 259.785156 C 35.296875 262.292969 36.542969 264.773438 37.851562 267.222656 C 39.160156 269.671875 40.527344 272.085938 41.953125 274.46875 C 43.378906 276.847656 44.859375 279.195312 46.402344 281.503906 C 47.941406 283.8125 49.539062 286.082031 51.191406 288.308594 C 52.84375 290.539062 54.550781 292.730469 56.308594 294.875 C 58.070312 297.023438 59.882812 299.125 61.746094 301.183594 C 63.609375 303.238281 65.519531 305.25 67.480469 307.214844 C 69.441406 309.179688 71.453125 311.09375 73.507812 312.957031 C 75.5625 314.824219 77.664062 316.636719 79.808594 318.398438 C 81.953125 320.160156 84.140625 321.867188 86.367188 323.523438 C 88.597656 325.179688 90.863281 326.777344 93.171875 328.320312 C 95.476562 329.863281 97.820312 331.351562 100.203125 332.777344 C 102.582031 334.207031 104.996094 335.574219 107.441406 336.886719 C 109.890625 338.195312 112.367188 339.445312 114.875 340.632812 C 117.382812 341.820312 119.921875 342.949219 122.484375 344.011719 C 125.046875 345.074219 127.636719 346.074219 130.25 347.011719 C 132.863281 347.949219 135.496094 348.820312 138.152344 349.628906 C 140.808594 350.4375 143.480469 351.175781 146.175781 351.855469 C 148.867188 352.53125 151.574219 353.140625 154.296875 353.683594 C 157.015625 354.226562 159.75 354.703125 162.496094 355.113281 C 165.242188 355.519531 167.996094 355.863281 170.757812 356.136719 C 173.519531 356.410156 176.285156 356.617188 179.058594 356.753906 C 181.832031 356.890625 184.605469 356.960938 187.382812 356.964844 C 190.15625 356.964844 192.929688 356.898438 195.703125 356.765625 C 198.476562 356.632812 201.242188 356.429688 204.007812 356.160156 C 206.769531 355.890625 209.523438 355.550781 212.269531 355.144531 C 215.015625 354.742188 217.75 354.269531 220.472656 353.730469 C 223.195312 353.191406 225.902344 352.582031 228.59375 351.910156 C 231.289062 351.238281 233.964844 350.5 236.621094 349.699219 C 239.277344 348.894531 241.914062 348.023438 244.527344 347.09375 C 247.140625 346.160156 249.730469 345.164062 252.296875 344.101562 C 254.859375 343.042969 257.398438 341.917969 259.910156 340.734375 C 262.417969 339.550781 264.898438 338.304688 267.347656 336.996094 C 269.796875 335.691406 272.210938 334.324219 274.59375 332.902344 C 276.976562 331.476562 279.320312 329.992188 281.632812 328.453125 C 283.941406 326.914062 286.210938 325.316406 288.441406 323.664062 C 290.671875 322.011719 292.859375 320.308594 295.007812 318.550781 C 297.15625 316.789062 299.257812 314.980469 301.316406 313.117188 C 303.375 311.253906 305.386719 309.34375 307.351562 307.382812 C 309.316406 305.421875 311.230469 303.414062 313.097656 301.359375 C 314.960938 299.304688 316.777344 297.203125 318.539062 295.058594 C 320.300781 292.914062 322.011719 290.730469 323.667969 288.5 C 325.320312 286.273438 326.921875 284.007812 328.464844 281.699219 C 330.011719 279.394531 331.496094 277.050781 332.925781 274.671875 C 334.355469 272.292969 335.726562 269.878906 337.035156 267.429688 C 338.347656 264.984375 339.597656 262.507812 340.785156 260 C 341.976562 257.492188 343.101562 254.957031 344.167969 252.390625 C 345.230469 249.828125 346.234375 247.242188 347.171875 244.628906 C 348.109375 242.015625 348.980469 239.382812 349.789062 236.726562 C 350.597656 234.070312 351.339844 231.398438 352.019531 228.707031 C 352.695312 226.011719 353.304688 223.308594 353.851562 220.585938 C 354.394531 217.863281 354.871094 215.128906 355.28125 212.382812 C 355.691406 209.640625 356.035156 206.886719 356.308594 204.125 C 356.582031 201.359375 356.789062 198.59375 356.929688 195.820312 C 357.070312 193.050781 357.140625 190.277344 357.144531 187.5 C 357.214844 169.175781 354.355469 151.316406 348.570312 133.929688 C 348.402344 133.371094 348.285156 132.804688 348.226562 132.222656 C 348.164062 131.644531 348.160156 131.0625 348.210938 130.484375 C 348.261719 129.902344 348.367188 129.332031 348.527344 128.773438 C 348.6875 128.210938 348.902344 127.671875 349.164062 127.152344 C 349.429688 126.632812 349.738281 126.144531 350.097656 125.683594 C 350.453125 125.226562 350.851562 124.804688 351.292969 124.421875 C 351.730469 124.035156 352.203125 123.699219 352.707031 123.40625 C 353.207031 123.113281 353.734375 122.871094 354.285156 122.679688 C 354.84375 122.496094 355.410156 122.371094 355.992188 122.300781 C 356.574219 122.234375 357.15625 122.222656 357.742188 122.265625 C 358.324219 122.3125 358.898438 122.414062 359.464844 122.574219 C 360.027344 122.730469 360.570312 122.941406 361.09375 123.207031 C 361.613281 123.472656 362.105469 123.785156 362.566406 124.148438 C 363.027344 124.511719 363.449219 124.914062 363.828125 125.359375 C 364.210938 125.804688 364.542969 126.28125 364.832031 126.792969 C 365.117188 127.300781 365.355469 127.835938 365.535156 128.394531 C 368.695312 137.925781 371.066406 147.648438 372.65625 157.5625 C 374.242188 167.480469 375.023438 177.457031 375 187.5 Z M 187.5 71.429688 C 186.914062 71.429688 186.332031 71.484375 185.757812 71.601562 C 185.183594 71.714844 184.625 71.882812 184.082031 72.109375 C 183.542969 72.332031 183.027344 72.609375 182.539062 72.933594 C 182.050781 73.257812 181.601562 73.628906 181.1875 74.042969 C 180.773438 74.457031 180.402344 74.910156 180.074219 75.398438 C 179.75 75.882812 179.476562 76.398438 179.25 76.941406 C 179.027344 77.480469 178.855469 78.039062 178.742188 78.617188 C 178.628906 79.191406 178.570312 79.769531 178.570312 80.355469 L 178.570312 191.25 L 234.820312 247.320312 C 235.222656 247.75 235.664062 248.128906 236.140625 248.46875 C 236.621094 248.804688 237.128906 249.089844 237.667969 249.320312 C 238.203125 249.554688 238.757812 249.730469 239.332031 249.847656 C 239.90625 249.96875 240.484375 250.027344 241.070312 250.027344 C 241.65625 250.027344 242.238281 249.96875 242.808594 249.847656 C 243.382812 249.730469 243.9375 249.554688 244.476562 249.320312 C 245.015625 249.089844 245.523438 248.804688 246 248.46875 C 246.480469 248.128906 246.921875 247.75 247.320312 247.320312 C 247.75 246.921875 248.128906 246.480469 248.46875 246 C 248.804688 245.523438 249.089844 245.015625 249.320312 244.476562 C 249.554688 243.9375 249.730469 243.382812 249.847656 242.808594 C 249.96875 242.238281 250.027344 241.65625 250.027344 241.070312 C 250.027344 240.484375 249.96875 239.90625 249.847656 239.332031 C 249.730469 238.757812 249.554688 238.203125 249.320312 237.667969 C 249.089844 237.128906 248.804688 236.621094 248.46875 236.140625 C 248.128906 235.664062 247.75 235.222656 247.320312 234.820312 L 196.429688 183.75 L 196.429688 80.355469 C 196.429688 79.769531 196.371094 79.191406 196.257812 78.617188 C 196.144531 78.039062 195.972656 77.480469 195.75 76.941406 C 195.523438 76.398438 195.25 75.882812 194.921875 75.398438 C 194.597656 74.910156 194.226562 74.457031 193.8125 74.042969 C 193.398438 73.628906 192.949219 73.257812 192.460938 72.933594 C 191.972656 72.609375 191.457031 72.332031 190.917969 72.109375 C 190.375 71.882812 189.816406 71.714844 189.242188 71.601562 C 188.667969 71.484375 188.085938 71.429688 187.5 71.429688 Z M 187.5 71.429688 " fill-opacity="1" fill-rule="nonzero"/></svg>