<svg xmlns="http://www.w3.org/2000/svg" xmlns:xlink="http://www.w3.org/1999/xlink" width="500" zoomAndPan="magnify" viewBox="0 0 375 374.999991" height="500" preserveAspectRatio="xMidYMid meet" version="1.0"><defs><clipPath id="891f7540f4"><path d="M 0.164062 17.109375 L 374.8125 17.109375 L 374.8125 357.609375 L 0.164062 357.609375 Z M 0.164062 17.109375 " clip-rule="nonzero"/></clipPath><clipPath id="06c5065fb1"><path d="M 5.148438 35.382812 L 374.8125 35.382812 L 374.8125 357.609375 L 5.148438 357.609375 Z M 5.148438 35.382812 " clip-rule="nonzero"/></clipPath></defs><g clip-path="url(#891f7540f4)"><path fill="#4d4d4d" d="M 5.097656 301.457031 L 154.527344 36.367188 C 169 10.6875 205.980469 10.6875 220.457031 36.367188 L 369.882812 301.457031 C 384.101562 326.679688 365.875 357.878906 336.917969 357.878906 L 38.058594 357.878906 C 9.105469 357.878906 -9.125 326.679688 5.097656 301.457031 " fill-opacity="1" fill-rule="nonzero"/></g><g clip-path="url(#06c5065fb1)"><path fill="#3b3b3b" d="M 369.882812 301.457031 L 220.457031 36.367188 C 212.496094 22.246094 333.152344 282.546875 333.152344 282.546875 C 347.371094 307.773438 329.144531 338.96875 300.1875 338.96875 L 5.300781 338.96875 C 11.679688 350.003906 23.511719 357.878906 38.058594 357.878906 L 336.917969 357.878906 C 365.875 357.878906 384.101562 326.679688 369.882812 301.457031 " fill-opacity="1" fill-rule="nonzero"/></g><path fill="#ffffff" d="M 187.488281 260.089844 C 175.863281 260.089844 166.441406 269.511719 166.441406 281.132812 C 166.441406 292.757812 175.863281 302.183594 187.488281 302.183594 C 199.113281 302.183594 208.535156 292.757812 208.535156 281.132812 C 208.535156 269.511719 199.113281 260.089844 187.488281 260.089844 " fill-opacity="1" fill-rule="nonzero"/><path fill="#ffffff" d="M 187.488281 91.710938 C 169.046875 91.710938 154.582031 107.542969 156.238281 125.914062 L 164.550781 218.117188 C 165.621094 229.984375 175.574219 239.078125 187.488281 239.078125 C 199.410156 239.078125 209.355469 229.984375 210.425781 218.117188 L 218.746094 125.914062 C 220.402344 107.542969 205.933594 91.710938 187.488281 91.710938 " fill-opacity="1" fill-rule="nonzero"/></svg>