<svg xmlns="http://www.w3.org/2000/svg" xmlns:xlink="http://www.w3.org/1999/xlink" width="500" zoomAndPan="magnify" viewBox="0 0 375 374.999991" height="500" preserveAspectRatio="xMidYMid meet" version="1.0"><defs><clipPath id="442ad9ce69"><path d="M 6.796875 19 L 368.296875 19 L 368.296875 375 L 6.796875 375 Z M 6.796875 19 " clip-rule="nonzero"/></clipPath></defs><g clip-path="url(#442ad9ce69)"><path fill="#000000" d="M 141.703125 298.554688 C 153.164062 298.554688 163.445312 303.601562 170.445312 311.589844 L 254.316406 311.589844 C 261.320312 303.601562 271.601562 298.554688 283.0625 298.554688 C 304.164062 298.554688 321.269531 315.65625 321.269531 336.75 C 321.269531 357.847656 304.164062 374.949219 283.0625 374.949219 C 261.960938 374.949219 244.855469 357.847656 244.855469 336.75 C 244.855469 336.140625 244.871094 335.535156 244.898438 334.933594 L 179.863281 334.933594 C 179.890625 335.535156 179.90625 336.140625 179.90625 336.75 C 179.90625 357.847656 162.800781 374.949219 141.699219 374.949219 C 120.597656 374.949219 103.492188 357.847656 103.492188 336.75 C 103.492188 336.125 103.511719 335.503906 103.539062 334.882812 C 92.347656 334.355469 82.230469 329.574219 74.785156 322.128906 C 66.882812 314.230469 61.980469 303.324219 61.980469 291.320312 C 61.980469 279.316406 66.882812 268.410156 74.785156 260.507812 C 79.414062 255.878906 85.078125 252.28125 91.390625 250.09375 L 46.902344 65.851562 C 46.800781 65.433594 46.582031 65.09375 46.289062 64.863281 C 46.015625 64.648438 45.628906 64.523438 45.175781 64.523438 L 18.507812 64.523438 C 12.058594 64.523438 6.832031 59.296875 6.832031 52.851562 C 6.832031 46.40625 12.058594 41.183594 18.507812 41.183594 L 45.175781 41.183594 C 50.988281 41.183594 56.386719 43.140625 60.699219 46.535156 C 64.988281 49.910156 68.148438 54.699219 69.519531 60.378906 L 80.828125 107.207031 L 132.015625 107.207031 C 134.429688 111.101562 137.113281 114.933594 140.027344 118.6875 L 83.601562 118.6875 L 92.464844 155.390625 L 153.519531 155.390625 L 153.519531 134.035156 C 157.203125 137.792969 161.054688 141.433594 165.003906 144.941406 L 165.003906 155.390625 L 177.5 155.390625 C 182.683594 159.472656 187.902344 163.3125 193.019531 166.867188 L 165.003906 166.867188 L 165.003906 204.042969 L 216.300781 204.042969 L 216.300781 181.507812 C 219.988281 183.035156 224.097656 183.035156 227.78125 181.507812 L 227.78125 204.042969 L 279.078125 204.042969 L 279.078125 166.867188 L 251.0625 166.867188 C 256.179688 163.3125 261.398438 159.476562 266.582031 155.390625 L 279.078125 155.390625 L 279.078125 144.941406 C 283.023438 141.433594 286.875 137.792969 290.5625 134.035156 L 290.5625 155.390625 L 347.832031 155.390625 L 356.515625 127.246094 C 356.742188 126.503906 356.851562 125.722656 356.851562 124.933594 C 356.851562 122.339844 355.484375 119.722656 352.894531 118.925781 C 352.394531 118.769531 351.808594 118.6875 351.132812 118.6875 L 304.054688 118.6875 C 306.96875 114.9375 309.65625 111.105469 312.066406 107.207031 L 351.132812 107.207031 C 352.910156 107.207031 354.625 107.480469 356.257812 107.980469 C 363.671875 110.269531 368.335938 117.289062 368.335938 124.929688 C 368.335938 126.769531 368.050781 128.683594 367.457031 130.609375 L 336.957031 229.476562 C 333.707031 240.011719 327.328125 248.796875 318.996094 254.953125 C 310.652344 261.117188 300.386719 264.644531 289.378906 264.644531 L 191.917969 264.644531 C 190.042969 268.433594 186.128906 271.050781 181.625 271.050781 L 105.601562 271.050781 C 100.039062 271.050781 94.972656 273.335938 91.292969 277.015625 C 87.613281 280.695312 85.328125 285.757812 85.328125 291.320312 C 85.328125 296.882812 87.613281 301.949219 91.292969 305.628906 C 94.972656 309.308594 100.039062 311.589844 105.601562 311.589844 L 112.957031 311.589844 C 119.960938 303.601562 130.242188 298.554688 141.703125 298.554688 Z M 95.234375 166.867188 L 104.210938 204.039062 L 153.519531 204.039062 L 153.519531 166.867188 Z M 106.980469 215.519531 L 114.753906 247.707031 L 153.519531 247.707031 L 153.519531 215.519531 Z M 165.003906 247.707031 L 181.625 247.707031 C 185.738281 247.707031 189.359375 249.894531 191.386719 253.164062 L 216.296875 253.164062 L 216.296875 215.519531 L 165 215.519531 L 165 247.707031 Z M 290.5625 204.039062 L 332.820312 204.039062 L 344.285156 166.867188 L 290.558594 166.867188 L 290.558594 204.039062 Z M 329.277344 215.519531 L 290.5625 215.519531 L 290.5625 253.144531 C 298.632812 252.910156 306.097656 250.25 312.175781 245.757812 C 318.585938 241.023438 323.5 234.246094 326.007812 226.113281 Z M 279.078125 215.519531 L 227.78125 215.519531 L 227.78125 253.164062 L 279.078125 253.164062 Z M 141.703125 321.199219 C 133.109375 321.199219 126.144531 328.160156 126.144531 336.75 C 126.144531 345.339844 133.109375 352.300781 141.703125 352.300781 C 150.292969 352.300781 157.257812 345.339844 157.257812 336.75 C 157.257812 328.160156 150.292969 321.199219 141.703125 321.199219 Z M 283.0625 321.199219 C 274.46875 321.199219 267.507812 328.160156 267.507812 336.75 C 267.507812 345.339844 274.46875 352.300781 283.0625 352.300781 C 291.652344 352.300781 298.617188 345.339844 298.617188 336.75 C 298.617188 328.160156 291.652344 321.199219 283.0625 321.199219 Z M 220.222656 170.667969 C 221.375 171.34375 222.703125 171.34375 223.855469 170.667969 C 255.125 152.304688 312.65625 110.15625 313.414062 68.101562 C 314.261719 21.285156 261.628906 0.0703125 222.039062 40.316406 C 182.445312 0.0625 129.808594 21.292969 130.664062 68.109375 C 131.433594 110.160156 188.957031 152.304688 220.222656 170.667969 Z M 220.222656 170.667969 " fill-opacity="1" fill-rule="evenodd"/></g></svg>