<svg xmlns="http://www.w3.org/2000/svg" xmlns:xlink="http://www.w3.org/1999/xlink" width="500" zoomAndPan="magnify" viewBox="0 0 375 374.999991" height="500" preserveAspectRatio="xMidYMid meet" version="1.0"><defs><clipPath id="d9d47f3358"><path d="M 245.410156 0.183594 L 299 0.183594 L 299 61 L 245.410156 61 Z M 245.410156 0.183594 " clip-rule="nonzero"/></clipPath><clipPath id="91d76e7cfa"><path d="M 1.40625 129 L 373.40625 129 L 373.40625 375 L 1.40625 375 Z M 1.40625 129 " clip-rule="nonzero"/></clipPath></defs><path fill="#000000" d="M 261.84375 93.210938 C 261.84375 95.511719 263.710938 97.390625 266.019531 97.390625 L 278.242188 97.390625 C 280.554688 97.390625 282.417969 95.511719 282.417969 93.210938 L 282.417969 71.546875 L 261.84375 71.546875 Z M 261.84375 93.210938 " fill-opacity="1" fill-rule="nonzero"/><path fill="#000000" d="M 212.992188 175.121094 C 214.480469 175.699219 216 175.96875 217.496094 175.96875 C 222.597656 175.96875 227.390625 172.863281 229.324219 167.816406 L 238.515625 143.699219 L 238.515625 147.761719 L 253.3125 147.761719 L 253.3125 71.546875 L 249.53125 71.546875 C 249.53125 71.546875 249.515625 71.554688 249.503906 71.554688 C 242.910156 71.554688 238.113281 73.722656 235.980469 79.335938 L 205.664062 158.773438 C 205.007812 160.527344 204.800781 162.3125 204.921875 164.066406 C 208.222656 166.902344 210.824219 170.535156 212.398438 174.75 C 212.613281 174.847656 212.75 175.035156 212.992188 175.121094 Z M 212.992188 175.121094 " fill-opacity="1" fill-rule="nonzero"/><g clip-path="url(#d9d47f3358)"><path fill="#000000" d="M 272.121094 60.554688 C 286.675781 60.554688 298.496094 47.035156 298.496094 30.367188 C 298.496094 13.699219 286.675781 0.183594 272.121094 0.183594 C 257.5625 0.183594 245.734375 13.699219 245.734375 30.367188 C 245.734375 47.039062 257.5625 60.554688 272.121094 60.554688 Z M 272.121094 60.554688 " fill-opacity="1" fill-rule="nonzero"/></g><path fill="#000000" d="M 101.273438 118.359375 C 116.644531 118.359375 129.085938 104.117188 129.085938 86.546875 C 129.085938 68.960938 116.644531 54.71875 101.273438 54.71875 C 85.9375 54.71875 73.5 68.960938 73.5 86.546875 C 73.5 104.117188 85.9375 118.359375 101.273438 118.359375 Z M 101.273438 118.359375 " fill-opacity="1" fill-rule="nonzero"/><path fill="#000000" d="M 305.847656 144.042969 L 314.925781 167.816406 C 316.835938 172.863281 321.644531 175.96875 326.746094 175.96875 C 328.253906 175.96875 329.765625 175.699219 331.246094 175.121094 C 337.78125 172.632812 341.070312 165.3125 338.574219 158.773438 L 308.253906 79.335938 C 306.128906 73.730469 300.789062 71.550781 294.757812 71.550781 L 290.960938 71.550781 L 290.960938 147.761719 L 305.785156 147.761719 Z M 305.847656 144.042969 " fill-opacity="1" fill-rule="nonzero"/><g clip-path="url(#91d76e7cfa)"><path fill="#000000" d="M 360.335938 180.355469 L 305.847656 180.355469 L 305.785156 156.632812 L 295.683594 156.632812 L 295.683594 176.28125 C 295.683594 177.851562 295.0625 179.226562 294.164062 180.355469 L 250.066406 180.355469 C 249.164062 179.226562 248.53125 177.851562 248.53125 176.28125 L 248.53125 156.632812 L 238.515625 156.632812 L 238.515625 180.355469 L 213.820312 180.355469 C 213.832031 180.484375 213.894531 180.597656 213.917969 180.71875 C 215.207031 191.492188 209.792969 201.515625 200.957031 206.613281 L 347.214844 206.613281 L 347.214844 267.304688 L 332.453125 267.304688 L 332.453125 255.75 C 332.453125 250.910156 328.53125 246.992188 323.699219 246.992188 L 310.144531 246.992188 L 310.144531 236.253906 C 310.144531 231.414062 306.226562 227.496094 301.390625 227.496094 L 271.085938 227.496094 C 266.253906 227.496094 262.335938 231.414062 262.335938 236.253906 L 262.335938 246.992188 L 251.867188 246.992188 C 247.035156 246.992188 243.117188 250.910156 243.117188 255.75 L 243.117188 267.304688 L 214.550781 267.304688 L 214.550781 255.75 C 214.550781 250.910156 210.617188 246.992188 205.796875 246.992188 L 179.414062 246.992188 C 174.582031 246.992188 170.648438 250.910156 170.648438 255.75 L 170.648438 267.304688 L 136.585938 267.304688 L 136.839844 206.613281 L 136.839844 181.125 L 146.355469 195.066406 C 148.851562 198.734375 152.988281 200.882812 157.371094 200.882812 C 157.894531 200.882812 158.429688 200.855469 158.976562 200.789062 L 189.464844 197.113281 C 196.769531 196.230469 201.988281 189.582031 201.113281 182.265625 C 200.226562 174.941406 193.773438 169.660156 186.265625 170.605469 L 163.8125 173.3125 L 137.9375 135.382812 C 134.757812 130.726562 129.730469 129.957031 123.9375 129.957031 L 77.554688 129.957031 C 70.78125 129.957031 65.296875 132.320312 63.128906 138.371094 L 32.679688 222.496094 C 30.511719 228.46875 33.042969 234.78125 38.15625 238.074219 L 38.15625 265.652344 L 10.636719 265.652344 C 7.667969 265.652344 4.902344 267.15625 3.296875 269.660156 C 1.679688 272.15625 1.4375 275.304688 2.652344 278.011719 L 21.003906 318.691406 C 22.417969 321.832031 25.53125 323.847656 28.976562 323.847656 L 66.136719 323.847656 L 66.136719 358.820312 C 66.136719 367.667969 73.304688 374.839844 82.15625 374.839844 C 90.992188 374.839844 98.160156 367.667969 98.160156 358.820312 L 98.160156 268.386719 L 104.558594 268.386719 L 104.558594 358.820312 C 104.558594 367.667969 111.738281 374.839844 120.566406 374.839844 C 129.414062 374.839844 136.585938 367.667969 136.585938 358.820312 L 136.585938 354.925781 L 357.683594 354.925781 C 366.371094 354.925781 373.453125 347.847656 373.453125 339.140625 L 373.453125 193.488281 C 373.453125 186.234375 367.589844 180.355469 360.335938 180.355469 Z M 51.277344 265.652344 L 51.277344 238.777344 C 54.160156 237.285156 56.570312 234.878906 57.761719 231.59375 L 65.867188 209.179688 L 66.136719 265.65625 L 51.277344 265.65625 Z M 347.210938 328.675781 L 310.144531 328.675781 L 310.144531 322.867188 C 310.144531 318.03125 306.226562 314.105469 301.390625 314.105469 L 282.359375 314.105469 L 282.359375 306.609375 C 282.359375 301.765625 278.4375 297.851562 273.605469 297.851562 L 229.632812 297.851562 C 224.8125 297.851562 220.890625 301.765625 220.890625 306.609375 L 220.890625 328.675781 L 192.609375 328.675781 L 192.609375 315.5625 C 192.609375 310.722656 188.675781 306.800781 183.855469 306.800781 L 155.070312 306.800781 C 150.238281 306.800781 146.316406 310.722656 146.316406 315.5625 L 146.316406 328.675781 L 136.585938 328.675781 L 136.585938 280.429688 L 347.214844 280.429688 L 347.214844 328.675781 Z M 347.210938 328.675781 " fill-opacity="1" fill-rule="nonzero"/></g></svg>