<svg xmlns="http://www.w3.org/2000/svg" xmlns:xlink="http://www.w3.org/1999/xlink" width="500" zoomAndPan="magnify" viewBox="0 0 375 374.999991" height="500" preserveAspectRatio="xMidYMid meet" version="1.0"><defs><clipPath id="8dbd2906b2"><path d="M 0 258 L 364 258 L 364 340.734375 L 0 340.734375 Z M 0 258 " clip-rule="nonzero"/></clipPath></defs><g clip-path="url(#8dbd2906b2)"><path fill="#4d4d4d" d="M 61.71875 341.039062 C 27.6875 341.039062 0.00390625 313.351562 0.00390625 279.324219 L 0.00390625 258.765625 L 363.597656 258.765625 L 363.597656 279.324219 C 363.597656 313.351562 335.910156 341.039062 301.878906 341.039062 L 61.71875 341.039062 " fill-opacity="1" fill-rule="nonzero"/></g><path fill="#4d4d4d" d="M 21.8125 293.0625 L 21.8125 85.65625 C 21.8125 64.46875 39.050781 47.230469 60.238281 47.230469 L 303.363281 47.230469 C 324.550781 47.230469 341.789062 64.46875 341.789062 85.65625 L 341.789062 293.0625 L 21.8125 293.0625 " fill-opacity="1" fill-rule="nonzero"/><path fill="#fef7d8" d="M 73.121094 327.816406 C 39.089844 327.816406 11.402344 300.128906 11.402344 266.097656 L 11.402344 245.542969 L 374.996094 245.542969 L 374.996094 266.097656 C 374.996094 300.128906 347.3125 327.816406 313.28125 327.816406 L 73.121094 327.816406 " fill-opacity="1" fill-rule="nonzero"/><path fill="#fef7d8" d="M 33.210938 279.835938 L 33.210938 72.433594 C 33.210938 51.246094 50.449219 34.007812 71.636719 34.007812 L 314.761719 34.007812 C 335.949219 34.007812 353.1875 51.246094 353.1875 72.433594 L 353.1875 279.835938 L 33.210938 279.835938 " fill-opacity="1" fill-rule="nonzero"/><path fill="#000000" d="M 33.785156 267.882812 C 34.722656 288.769531 52.007812 305.472656 73.121094 305.472656 L 313.28125 305.472656 C 334.390625 305.472656 351.679688 288.769531 352.613281 267.882812 Z M 313.28125 313.679688 L 73.121094 313.679688 C 46.882812 313.679688 25.539062 292.335938 25.539062 266.097656 L 25.539062 263.78125 C 25.539062 261.511719 27.375 259.675781 29.644531 259.675781 L 356.757812 259.675781 C 359.023438 259.675781 360.859375 261.511719 360.859375 263.78125 L 360.859375 266.097656 C 360.859375 292.335938 339.515625 313.679688 313.28125 313.679688 " fill-opacity="1" fill-rule="nonzero"/><path fill="#000000" d="M 142.785156 274.941406 L 243.613281 274.941406 L 243.613281 267.882812 L 142.785156 267.882812 Z M 247.71875 283.148438 L 138.679688 283.148438 C 136.414062 283.148438 134.578125 281.3125 134.578125 279.046875 L 134.578125 263.78125 C 134.578125 261.511719 136.414062 259.675781 138.679688 259.675781 L 247.71875 259.675781 C 249.984375 259.675781 251.820312 261.511719 251.820312 263.78125 L 251.820312 279.046875 C 251.820312 281.3125 249.984375 283.148438 247.71875 283.148438 " fill-opacity="1" fill-rule="nonzero"/><path fill="#000000" d="M 55.554688 257.496094 L 330.847656 257.496094 L 330.847656 72.433594 C 330.847656 63.5625 323.632812 56.347656 314.761719 56.347656 L 71.636719 56.347656 C 62.765625 56.347656 55.554688 63.5625 55.554688 72.433594 Z M 334.949219 265.703125 L 51.449219 265.703125 C 49.183594 265.703125 47.347656 263.867188 47.347656 261.597656 L 47.347656 72.433594 C 47.347656 59.039062 58.242188 48.140625 71.636719 48.140625 L 314.761719 48.140625 C 328.15625 48.140625 339.054688 59.039062 339.054688 72.433594 L 339.054688 261.597656 C 339.054688 263.867188 337.214844 265.703125 334.949219 265.703125 " fill-opacity="1" fill-rule="nonzero"/><path fill="#000000" d="M 74.089844 243.320312 L 312.308594 243.320312 L 312.308594 74.886719 L 74.089844 74.886719 Z M 316.414062 251.527344 L 69.988281 251.527344 C 67.722656 251.527344 65.882812 249.691406 65.882812 247.425781 L 65.882812 70.78125 C 65.882812 68.515625 67.722656 66.679688 69.988281 66.679688 L 316.414062 66.679688 C 318.679688 66.679688 320.515625 68.515625 320.515625 70.78125 L 320.515625 247.425781 C 320.515625 249.691406 318.679688 251.527344 316.414062 251.527344 " fill-opacity="1" fill-rule="nonzero"/><path fill="#000000" d="M 116.839844 142.488281 C 113.105469 142.488281 110.070312 145.523438 110.070312 149.257812 L 110.070312 196.5 C 110.070312 199.46875 112.488281 201.886719 115.457031 201.886719 L 146.636719 201.886719 C 149.605469 201.886719 152.023438 199.46875 152.023438 196.5 L 152.023438 149.257812 C 152.023438 145.523438 148.988281 142.488281 145.257812 142.488281 Z M 146.636719 210.09375 L 115.457031 210.09375 C 107.964844 210.09375 101.863281 203.996094 101.863281 196.5 L 101.863281 149.257812 C 101.863281 141 108.582031 134.28125 116.839844 134.28125 L 145.257812 134.28125 C 153.511719 134.28125 160.230469 141 160.230469 149.257812 L 160.230469 196.5 C 160.230469 203.996094 154.132812 210.09375 146.636719 210.09375 " fill-opacity="1" fill-rule="nonzero"/><path fill="#000000" d="M 122.066406 134.28125 L 140.027344 134.28125 L 140.027344 131.585938 L 122.066406 131.585938 Z M 144.132812 142.488281 L 117.960938 142.488281 C 115.695312 142.488281 113.859375 140.652344 113.859375 138.386719 L 113.859375 127.484375 C 113.859375 125.214844 115.695312 123.378906 117.960938 123.378906 L 144.132812 123.378906 C 146.398438 123.378906 148.234375 125.214844 148.234375 127.484375 L 148.234375 138.386719 C 148.234375 140.652344 146.398438 142.488281 144.132812 142.488281 " fill-opacity="1" fill-rule="nonzero"/><path fill="#000000" d="M 117.707031 123.378906 L 144.390625 123.378906 L 144.390625 116.320312 L 117.707031 116.320312 Z M 148.492188 131.585938 L 113.601562 131.585938 C 111.335938 131.585938 109.5 129.75 109.5 127.484375 L 109.5 112.214844 C 109.5 109.949219 111.335938 108.113281 113.601562 108.113281 L 148.492188 108.113281 C 150.761719 108.113281 152.597656 109.949219 152.597656 112.214844 L 152.597656 127.484375 C 152.597656 129.75 150.761719 131.585938 148.492188 131.585938 " fill-opacity="1" fill-rule="nonzero"/><path fill="#000000" d="M 140.601562 180.078125 L 152.023438 180.078125 L 152.023438 159.9375 L 140.601562 159.9375 Z M 156.125 188.285156 L 136.5 188.285156 C 134.234375 188.285156 132.394531 186.449219 132.394531 184.183594 L 132.394531 155.832031 C 132.394531 153.566406 134.234375 151.726562 136.5 151.726562 L 156.125 151.726562 C 158.394531 151.726562 160.230469 153.566406 160.230469 155.832031 L 160.230469 184.183594 C 160.230469 186.449219 158.394531 188.285156 156.125 188.285156 " fill-opacity="1" fill-rule="nonzero"/><path fill="#000000" d="M 208.207031 216.0625 L 276.328125 216.0625 L 276.328125 200.28125 L 208.207031 200.28125 Z M 280.429688 224.269531 L 204.105469 224.269531 C 201.835938 224.269531 200 222.433594 200 220.164062 L 200 196.175781 C 200 193.910156 201.835938 192.070312 204.105469 192.070312 L 280.429688 192.070312 C 282.695312 192.070312 284.535156 193.910156 284.535156 196.175781 L 284.535156 220.164062 C 284.535156 222.433594 282.695312 224.269531 280.429688 224.269531 " fill-opacity="1" fill-rule="nonzero"/><path fill="#000000" d="M 291.332031 104.328125 L 193.199219 104.328125 C 190.933594 104.328125 189.097656 102.488281 189.097656 100.222656 C 189.097656 97.957031 190.933594 96.121094 193.199219 96.121094 L 291.332031 96.121094 C 293.601562 96.121094 295.4375 97.957031 295.4375 100.222656 C 295.4375 102.488281 293.601562 104.328125 291.332031 104.328125 " fill-opacity="1" fill-rule="nonzero"/><path fill="#000000" d="M 291.332031 123.410156 L 193.199219 123.410156 C 190.933594 123.410156 189.097656 121.570312 189.097656 119.304688 C 189.097656 117.039062 190.933594 115.203125 193.199219 115.203125 L 291.332031 115.203125 C 293.601562 115.203125 295.4375 117.039062 295.4375 119.304688 C 295.4375 121.570312 293.601562 123.410156 291.332031 123.410156 " fill-opacity="1" fill-rule="nonzero"/><path fill="#000000" d="M 291.332031 142.488281 L 193.199219 142.488281 C 190.933594 142.488281 189.097656 140.652344 189.097656 138.386719 C 189.097656 136.121094 190.933594 134.28125 193.199219 134.28125 L 291.332031 134.28125 C 293.601562 134.28125 295.4375 136.121094 295.4375 138.386719 C 295.4375 140.652344 293.601562 142.488281 291.332031 142.488281 " fill-opacity="1" fill-rule="nonzero"/><path fill="#000000" d="M 291.332031 161.570312 L 193.199219 161.570312 C 190.933594 161.570312 189.097656 159.734375 189.097656 157.46875 C 189.097656 155.203125 190.933594 153.363281 193.199219 153.363281 L 291.332031 153.363281 C 293.601562 153.363281 295.4375 155.203125 295.4375 157.46875 C 295.4375 159.734375 293.601562 161.570312 291.332031 161.570312 " fill-opacity="1" fill-rule="nonzero"/><path fill="#000000" d="M 291.332031 180.652344 L 193.199219 180.652344 C 190.933594 180.652344 189.097656 178.816406 189.097656 176.550781 C 189.097656 174.285156 190.933594 172.445312 193.199219 172.445312 L 291.332031 172.445312 C 293.601562 172.445312 295.4375 174.285156 295.4375 176.550781 C 295.4375 178.816406 293.601562 180.652344 291.332031 180.652344 " fill-opacity="1" fill-rule="nonzero"/></svg>