<svg xmlns="http://www.w3.org/2000/svg" xmlns:xlink="http://www.w3.org/1999/xlink" width="500" zoomAndPan="magnify" viewBox="0 0 375 374.999991" height="500" preserveAspectRatio="xMidYMid meet" version="1.0"><defs><clipPath id="4466272067"><path d="M 16.023438 0 L 358.773438 0 L 358.773438 374 L 16.023438 374 Z M 16.023438 0 " clip-rule="nonzero"/></clipPath></defs><g clip-path="url(#4466272067)"><path fill="#000000" d="M 356.570312 338.472656 L 304.679688 278.53125 C 304.167969 263.597656 302.234375 249.394531 298.867188 235.925781 C 295.429688 222.179688 290.519531 209.167969 284.136719 196.90625 L 283.148438 133.199219 C 282.847656 114.546875 282.570312 98.960938 282.324219 86.445312 C 282.308594 85.539062 282.101562 84.691406 281.738281 83.933594 C 280.796875 81.980469 279.359375 80.441406 277.519531 79.328125 C 274.652344 77.601562 270.863281 76.996094 266.589844 77.515625 C 263.03125 77.957031 258.953125 79.199219 254.726562 81.242188 C 249.804688 83.617188 244.597656 87.144531 239.707031 91.796875 L 239.707031 23.582031 C 239.707031 17.203125 237.09375 11.394531 232.875 7.152344 L 232.84375 7.125 C 228.625 2.902344 222.8125 0.289062 216.4375 0.289062 L 82.324219 0.289062 C 75.949219 0.289062 70.140625 2.902344 65.894531 7.125 L 65.867188 7.152344 C 61.648438 11.382812 59.035156 17.203125 59.035156 23.582031 L 59.035156 91.292969 C 54.984375 88.6875 50.1875 87.164062 45.050781 87.164062 L 42.035156 87.164062 C 34.878906 87.164062 28.371094 90.089844 23.65625 94.804688 C 18.953125 99.519531 16.023438 106.039062 16.023438 113.203125 C 16.023438 120.347656 18.953125 126.859375 23.65625 131.574219 L 23.6875 131.601562 C 24.238281 132.144531 24.804688 132.667969 25.394531 133.164062 C 24.796875 133.667969 24.207031 134.191406 23.65625 134.75 C 18.953125 139.457031 16.023438 145.96875 16.023438 153.140625 C 16.023438 160.285156 18.953125 166.792969 23.65625 171.511719 L 23.6875 171.539062 C 24.246094 172.097656 24.84375 172.640625 25.449219 173.144531 C 24.824219 173.660156 24.226562 174.199219 23.65625 174.78125 C 18.953125 179.476562 16.023438 185.996094 16.023438 193.160156 C 16.023438 200.304688 18.953125 206.8125 23.65625 211.53125 L 23.6875 211.558594 C 24.238281 212.101562 24.804688 212.625 25.394531 213.117188 C 24.796875 213.621094 24.207031 214.144531 23.65625 214.707031 C 18.953125 219.402344 16.023438 225.921875 16.023438 233.085938 C 16.023438 240.230469 18.953125 246.742188 23.65625 251.457031 L 23.6875 251.484375 C 28.398438 256.203125 34.90625 259.125 42.046875 259.125 L 45.0625 259.125 C 50.195312 259.125 54.992188 257.613281 59.042969 255.015625 L 59.042969 283.511719 C 59.042969 289.890625 61.65625 295.699219 65.875 299.9375 L 65.90625 299.96875 C 70.132812 304.1875 75.949219 306.804688 82.324219 306.804688 L 105.070312 306.804688 C 113.609375 315.292969 124.066406 322.035156 136.488281 326.988281 C 148.875 331.917969 163.15625 335.082031 179.3125 336.449219 L 204.226562 371.339844 C 206.148438 374.039062 209.902344 374.675781 212.601562 372.75 C 215.296875 370.828125 215.933594 367.070312 214.007812 364.371094 L 187.632812 327.425781 C 186.640625 325.875 184.960938 324.800781 182.992188 324.660156 C 166.835938 323.511719 152.804688 320.5625 140.914062 315.824219 C 134.640625 313.324219 128.964844 310.304688 123.839844 306.792969 L 216.4375 306.792969 C 222.8125 306.792969 228.617188 304.179688 232.855469 299.957031 L 232.882812 299.929688 C 237.101562 295.699219 239.714844 289.878906 239.714844 283.5 L 239.714844 110.523438 C 245.511719 101.519531 253.121094 95.363281 259.953125 92.058594 C 262.9375 90.609375 265.71875 89.753906 268.054688 89.460938 C 269.015625 89.351562 269.808594 89.3125 270.398438 89.378906 L 271.164062 133.386719 L 272.171875 198.074219 C 272.097656 199.15625 272.308594 200.265625 272.859375 201.292969 C 279.125 213.082031 283.902344 225.597656 287.21875 238.839844 C 290.539062 252.121094 292.386719 266.121094 292.761719 280.820312 C 292.753906 282.222656 293.238281 283.632812 294.226562 284.773438 L 347.507812 346.328125 C 349.671875 348.832031 353.472656 349.113281 355.972656 346.945312 C 358.464844 344.777344 358.734375 340.988281 356.570312 338.472656 Z M 32.160156 123.09375 C 29.632812 120.554688 28.0625 117.0625 28.0625 113.203125 C 28.0625 109.363281 29.640625 105.863281 32.171875 103.332031 C 34.699219 100.800781 38.199219 99.222656 42.035156 99.222656 L 45.050781 99.222656 C 48.90625 99.222656 52.40625 100.792969 54.917969 103.3125 L 54.945312 103.339844 C 57.464844 105.863281 59.035156 109.355469 59.035156 113.214844 C 59.035156 117.050781 57.457031 120.554688 54.925781 123.085938 C 52.660156 125.355469 49.625 126.839844 46.273438 127.136719 C 45.875 127.121094 45.472656 127.109375 45.0625 127.109375 L 42.046875 127.109375 C 41.636719 127.109375 41.234375 127.121094 40.832031 127.136719 C 37.464844 126.839844 34.429688 125.34375 32.160156 123.09375 Z M 32.160156 163.019531 C 29.632812 160.480469 28.0625 156.988281 28.0625 153.128906 C 28.0625 149.292969 29.640625 145.789062 32.171875 143.257812 C 34.4375 140.988281 37.472656 139.503906 40.832031 139.203125 C 41.234375 139.222656 41.636719 139.234375 42.035156 139.234375 L 45.050781 139.234375 C 45.460938 139.234375 45.863281 139.222656 46.265625 139.203125 C 49.636719 139.496094 52.679688 140.980469 54.925781 143.230469 L 54.957031 143.257812 C 57.476562 145.78125 59.042969 149.273438 59.042969 153.128906 C 59.042969 156.96875 57.464844 160.472656 54.9375 163.003906 C 52.40625 165.535156 48.90625 167.113281 45.070312 167.113281 C 45.070312 167.113281 45.070312 167.113281 45.0625 167.113281 L 42.046875 167.113281 C 42.046875 167.113281 42.046875 167.113281 42.035156 167.113281 C 38.191406 167.121094 34.691406 165.550781 32.160156 163.019531 Z M 32.160156 203.042969 C 29.632812 200.5 28.0625 197.007812 28.0625 193.152344 C 28.0625 189.3125 29.640625 185.808594 32.171875 183.277344 C 34.699219 180.746094 38.199219 179.167969 42.035156 179.167969 L 45.050781 179.167969 C 48.90625 179.167969 52.40625 180.738281 54.917969 183.261719 L 54.945312 183.289062 C 57.464844 185.808594 59.035156 189.300781 59.035156 193.160156 C 59.035156 197 57.457031 200.5 54.925781 203.03125 C 52.660156 205.300781 49.625 206.785156 46.265625 207.085938 C 45.863281 207.066406 45.460938 207.058594 45.0625 207.058594 L 42.046875 207.058594 C 41.636719 207.058594 41.234375 207.066406 40.832031 207.085938 C 37.464844 206.785156 34.429688 205.300781 32.160156 203.042969 Z M 54.925781 242.957031 C 52.398438 245.488281 48.898438 247.066406 45.0625 247.066406 L 42.046875 247.066406 C 38.199219 247.066406 34.699219 245.5 32.160156 242.96875 C 29.632812 240.425781 28.0625 236.933594 28.0625 233.078125 C 28.0625 229.238281 29.640625 225.734375 32.171875 223.207031 C 34.4375 220.9375 37.480469 219.449219 40.84375 219.152344 C 41.242188 219.171875 41.644531 219.179688 42.046875 219.179688 L 45.0625 219.179688 C 45.460938 219.179688 45.863281 219.171875 46.265625 219.152344 C 49.636719 219.441406 52.679688 220.925781 54.925781 223.175781 L 54.957031 223.207031 C 57.476562 225.726562 59.042969 229.21875 59.042969 233.078125 C 59.035156 236.925781 57.457031 240.425781 54.925781 242.957031 Z M 227.675781 283.511719 C 227.675781 286.613281 226.414062 289.421875 224.390625 291.449219 L 224.359375 291.476562 C 222.335938 293.503906 219.527344 294.765625 216.425781 294.765625 L 82.324219 294.765625 C 79.222656 294.765625 76.414062 293.503906 74.390625 291.476562 L 74.359375 291.449219 C 72.335938 289.421875 71.074219 286.613281 71.074219 283.511719 L 71.074219 23.582031 C 71.074219 20.480469 72.335938 17.667969 74.359375 15.640625 L 74.390625 15.613281 C 76.414062 13.585938 79.222656 12.328125 82.324219 12.328125 L 216.4375 12.328125 C 219.535156 12.328125 222.34375 13.585938 224.371094 15.613281 L 224.398438 15.640625 C 226.421875 17.667969 227.683594 20.480469 227.683594 23.582031 L 227.683594 283.511719 Z M 191.8125 102.21875 L 176.242188 102.21875 L 176.242188 98.1875 C 176.242188 90.789062 173.21875 84.0625 168.355469 79.199219 C 163.492188 74.332031 156.773438 71.304688 149.378906 71.304688 C 142.183594 71.304688 135.613281 74.183594 130.777344 78.851562 L 130.394531 79.199219 C 125.53125 84.0625 122.507812 90.789062 122.507812 98.1875 L 122.507812 102.21875 L 106.9375 102.21875 C 103.613281 102.21875 100.917969 104.917969 100.917969 108.246094 L 100.917969 197.632812 C 100.917969 200.957031 103.613281 203.65625 106.9375 203.65625 L 191.8125 203.65625 C 195.136719 203.65625 197.832031 200.957031 197.832031 197.632812 L 197.832031 108.246094 C 197.832031 104.910156 195.136719 102.21875 191.8125 102.21875 Z M 134.546875 98.1875 C 134.546875 94.113281 136.21875 90.40625 138.90625 87.714844 L 139.160156 87.445312 C 141.828125 84.914062 145.421875 83.355469 149.371094 83.355469 C 153.441406 83.355469 157.144531 85.027344 159.835938 87.714844 C 162.523438 90.40625 164.191406 94.113281 164.191406 98.1875 L 164.191406 102.21875 L 134.539062 102.21875 L 134.539062 98.1875 Z M 185.792969 191.609375 L 112.957031 191.609375 L 112.957031 114.269531 L 122.507812 114.269531 L 122.507812 124.636719 C 122.507812 127.960938 125.203125 130.660156 128.527344 130.660156 C 131.851562 130.660156 134.546875 127.960938 134.546875 124.636719 L 134.546875 114.269531 L 164.203125 114.269531 L 164.203125 124.636719 C 164.203125 127.960938 166.898438 130.660156 170.222656 130.660156 C 173.546875 130.660156 176.242188 127.960938 176.242188 124.636719 L 176.242188 114.269531 L 185.792969 114.269531 Z M 160.871094 37.890625 C 160.871094 34.5625 163.566406 31.867188 166.890625 31.867188 L 169.046875 31.867188 C 172.371094 31.867188 175.066406 34.5625 175.066406 37.890625 C 175.066406 41.214844 172.371094 43.914062 169.046875 43.914062 L 166.890625 43.914062 C 163.558594 43.914062 160.871094 41.214844 160.871094 37.890625 Z M 123.683594 37.890625 C 123.683594 34.5625 126.378906 31.867188 129.703125 31.867188 L 148.464844 31.867188 C 151.789062 31.867188 154.484375 34.5625 154.484375 37.890625 C 154.484375 41.214844 151.789062 43.914062 148.464844 43.914062 L 129.703125 43.914062 C 126.378906 43.914062 123.683594 41.214844 123.683594 37.890625 Z M 192.074219 243.21875 C 188.535156 239.679688 183.65625 237.476562 178.289062 237.476562 L 120.183594 237.476562 C 114.824219 237.476562 109.933594 239.679688 106.394531 243.21875 L 106.367188 243.246094 C 102.832031 246.789062 100.628906 251.671875 100.628906 257.042969 C 100.628906 262.402344 102.832031 267.296875 106.367188 270.835938 L 106.394531 270.863281 C 109.933594 274.40625 114.824219 276.609375 120.183594 276.609375 L 178.289062 276.609375 C 183.65625 276.609375 188.535156 274.40625 192.074219 270.863281 L 192.101562 270.835938 C 195.640625 267.296875 197.84375 262.402344 197.84375 257.042969 C 197.84375 251.671875 195.640625 246.789062 192.101562 243.246094 Z M 183.597656 262.355469 C 182.234375 263.710938 180.359375 264.550781 178.289062 264.550781 L 120.183594 264.550781 C 118.109375 264.550781 116.234375 263.703125 114.871094 262.355469 C 113.519531 260.992188 112.679688 259.117188 112.679688 257.042969 C 112.679688 254.96875 113.519531 253.09375 114.871094 251.726562 C 116.234375 250.375 118.109375 249.535156 120.183594 249.535156 L 178.289062 249.535156 C 180.359375 249.535156 182.234375 250.375 183.597656 251.726562 C 184.953125 253.09375 185.792969 254.96875 185.792969 257.042969 C 185.792969 259.105469 184.953125 260.992188 183.597656 262.355469 Z M 127.21875 226.101562 C 123.898438 226.101562 121.199219 223.402344 121.199219 220.078125 C 121.199219 216.75 123.898438 214.050781 127.21875 214.050781 L 171.539062 214.050781 C 174.863281 214.050781 177.558594 216.75 177.558594 220.078125 C 177.558594 223.402344 174.863281 226.101562 171.539062 226.101562 Z M 127.21875 226.101562 " fill-opacity="1" fill-rule="nonzero"/></g></svg>