<svg xmlns="http://www.w3.org/2000/svg" xmlns:xlink="http://www.w3.org/1999/xlink" width="500" zoomAndPan="magnify" viewBox="0 0 375 374.999991" height="500" preserveAspectRatio="xMidYMid meet" version="1.0"><defs><clipPath id="d6fff9baec"><path d="M 6.09375 81 L 369 81 L 369 375 L 6.09375 375 Z M 6.09375 81 " clip-rule="nonzero"/></clipPath></defs><path fill="#000000" d="M 143.820312 53.125 C 143.820312 30.710938 163.460938 12.5 187.59375 12.5 C 211.726562 12.5 231.367188 30.710938 231.367188 53.125 L 231.367188 57.691406 C 231.367188 63.890625 229.804688 70.140625 226.921875 75.535156 L 187.59375 143.726562 L 148.363281 75.707031 C 145.382812 70.140625 143.820312 63.890625 143.820312 57.691406 Z M 187.59375 168.773438 L 237.863281 81.589844 C 241.796875 74.21875 243.871094 65.941406 243.871094 57.691406 L 243.871094 53.125 C 243.871094 23.828125 218.640625 0 187.59375 0 C 156.546875 0 131.316406 23.828125 131.316406 53.125 L 131.316406 57.691406 C 131.316406 65.941406 133.390625 74.21875 137.421875 81.761719 L 187.59375 168.773438 " fill-opacity="1" fill-rule="nonzero"/><path fill="#000000" d="M 187.59375 37.5 C 194.480469 37.5 200.101562 43.113281 200.101562 50 C 200.101562 56.882812 194.480469 62.5 187.59375 62.5 C 180.707031 62.5 175.085938 56.882812 175.085938 50 C 175.085938 43.113281 180.707031 37.5 187.59375 37.5 Z M 187.59375 75 C 201.394531 75 212.605469 63.792969 212.605469 50 C 212.605469 36.207031 201.394531 25 187.59375 25 C 173.792969 25 162.582031 36.207031 162.582031 50 C 162.582031 63.792969 173.792969 75 187.59375 75 " fill-opacity="1" fill-rule="nonzero"/><g clip-path="url(#d6fff9baec)"><path fill="#000000" d="M 356.429688 209.375 C 356.429688 217.992188 349.421875 225 340.796875 225 C 332.175781 225 325.164062 217.992188 325.164062 209.375 L 325.164062 193.75 L 356.429688 193.75 Z M 343.925781 362.5 L 262.632812 362.5 L 262.632812 235.765625 C 267.617188 234.007812 271.890625 230.882812 275.140625 226.832031 C 280.292969 233.277344 288.132812 237.5 297.023438 237.5 C 305.917969 237.5 313.757812 233.277344 318.910156 226.832031 C 324.066406 233.277344 331.90625 237.5 340.796875 237.5 C 341.871094 237.5 342.898438 237.304688 343.925781 237.183594 Z M 31.261719 350 L 250.125 350 L 250.125 362.5 L 31.261719 362.5 Z M 34.390625 237.5 C 43.28125 237.5 51.121094 233.277344 56.277344 226.832031 C 61.429688 233.277344 69.269531 237.5 78.164062 237.5 C 87.054688 237.5 94.894531 233.277344 100.046875 226.832031 C 105.203125 233.277344 113.042969 237.5 121.933594 237.5 C 130.824219 237.5 138.667969 233.277344 143.820312 226.832031 C 148.976562 233.277344 156.816406 237.5 165.707031 237.5 C 174.597656 237.5 182.441406 233.277344 187.59375 226.832031 C 192.746094 233.277344 200.589844 237.5 209.480469 237.5 C 218.371094 237.5 226.210938 233.277344 231.367188 226.832031 C 235.910156 232.519531 242.53125 236.328125 250.125 237.183594 L 250.125 337.5 L 31.261719 337.5 L 31.261719 237.183594 C 32.3125 237.304688 33.316406 237.5 34.390625 237.5 Z M 50.023438 193.75 L 50.023438 209.375 C 50.023438 217.992188 43.011719 225 34.390625 225 C 25.765625 225 18.757812 217.992188 18.757812 209.375 L 18.757812 193.75 Z M 281.390625 193.75 L 312.660156 193.75 L 312.660156 209.375 C 312.660156 217.992188 305.648438 225 297.023438 225 C 288.402344 225 281.390625 217.992188 281.390625 209.375 Z M 193.847656 193.75 L 225.113281 193.75 L 225.113281 209.375 C 225.113281 217.992188 218.101562 225 209.480469 225 C 200.859375 225 193.847656 217.992188 193.847656 209.375 Z M 150.074219 193.75 L 181.339844 193.75 L 181.339844 209.375 C 181.339844 217.992188 174.328125 225 165.707031 225 C 157.085938 225 150.074219 217.992188 150.074219 209.375 Z M 106.300781 193.75 L 137.566406 193.75 L 137.566406 209.375 C 137.566406 217.992188 130.558594 225 121.933594 225 C 113.3125 225 106.300781 217.992188 106.300781 209.375 Z M 62.527344 193.75 L 93.796875 193.75 L 93.796875 209.375 C 93.796875 217.992188 86.785156 225 78.164062 225 C 69.539062 225 62.527344 217.992188 62.527344 209.375 Z M 253.253906 225 C 244.628906 225 237.621094 217.992188 237.621094 209.375 L 237.621094 193.75 L 268.886719 193.75 L 268.886719 209.375 C 268.886719 217.992188 261.875 225 253.253906 225 Z M 337.671875 111.035156 L 337.671875 81.25 L 250.125 81.25 L 250.125 93.75 L 325.164062 93.75 L 325.164062 106.25 L 237.621094 106.25 L 237.621094 118.75 L 327.558594 118.75 L 356.429688 176.464844 L 356.429688 181.25 L 18.757812 181.25 L 18.757812 176.464844 L 47.628906 118.75 L 137.566406 118.75 L 137.566406 106.25 L 50.023438 106.25 L 50.023438 93.75 L 125.0625 93.75 L 125.0625 81.25 L 37.515625 81.25 L 37.515625 111.035156 L 6.25 173.535156 L 6.25 209.375 C 6.25 219.089844 11.207031 227.683594 18.757812 232.738281 L 18.757812 375 L 356.429688 375 L 356.429688 232.738281 C 363.980469 227.683594 368.9375 219.089844 368.9375 209.375 L 368.9375 173.535156 L 337.671875 111.035156 " fill-opacity="1" fill-rule="nonzero"/></g><path fill="#000000" d="M 275.140625 293.75 L 287.644531 293.75 L 287.644531 281.25 L 275.140625 281.25 L 275.140625 293.75 " fill-opacity="1" fill-rule="nonzero"/><path fill="#000000" d="M 225.113281 306.25 L 56.277344 306.25 L 56.277344 262.5 L 225.113281 262.5 Z M 237.621094 250 L 43.769531 250 L 43.769531 318.75 L 237.621094 318.75 L 237.621094 250 " fill-opacity="1" fill-rule="nonzero"/></svg>