<svg xmlns="http://www.w3.org/2000/svg" xmlns:xlink="http://www.w3.org/1999/xlink" width="500" zoomAndPan="magnify" viewBox="0 0 375 374.999991" height="500" preserveAspectRatio="xMidYMid meet" version="1.0"><defs><clipPath id="2a62825f42"><path d="M 1 16.171875 L 374 16.171875 L 374 358.921875 L 1 358.921875 Z M 1 16.171875 " clip-rule="nonzero"/></clipPath></defs><g clip-path="url(#2a62825f42)"><path fill="#000000" d="M 370.996094 86.683594 C 370.226562 85.898438 369.335938 85.253906 368.203125 84.679688 C 367.339844 84.265625 366.433594 84.046875 365.523438 83.929688 C 366.019531 81.328125 366.019531 78.058594 364.386719 74.703125 C 363.070312 71.996094 361.140625 70.1875 359.40625 68.996094 L 363.132812 63.476562 C 366.53125 58.433594 365.5 51.519531 360.722656 47.980469 C 358.289062 46.214844 355.757812 45.769531 353.644531 45.792969 C 353.710938 42.5625 353.03125 37.851562 349.332031 33.863281 C 349.304688 33.828125 349.15625 33.671875 349.125 33.640625 C 346.632812 31.015625 342.996094 29.921875 339.394531 30.707031 C 335.644531 31.523438 332.664062 34.164062 331.425781 37.761719 L 325.441406 55.164062 L 325.003906 47.007812 C 324.925781 45.519531 324.460938 44.101562 323.664062 42.90625 C 322.492188 41.164062 320.375 38.921875 316.777344 38.09375 C 314.476562 37.585938 312.082031 38.152344 310.199219 39.644531 C 308.210938 41.21875 307.050781 43.566406 307.007812 46.09375 L 306.40625 82.882812 C 299.050781 84.554688 292.472656 89.464844 288.792969 96.800781 L 284.253906 105.835938 C 281.105469 103.453125 277.734375 100.582031 275.085938 95.613281 C 273.089844 91.859375 272.449219 88.785156 271.886719 86.078125 C 271.136719 82.46875 270.425781 79.0625 266.769531 76.480469 C 262.089844 73.171875 255.253906 73.214844 246.4375 76.589844 C 243.429688 74.351562 240.707031 73.0625 238.273438 72.363281 C 236.269531 66.550781 231.601562 61.976562 225.695312 60.238281 C 220.597656 58.734375 215.109375 59.515625 210.59375 62.167969 C 209.808594 58.363281 208.164062 54.15625 204.699219 51.554688 C 199.003906 47.277344 189.921875 47.53125 181.554688 52.199219 C 175.960938 55.324219 168.996094 56.523438 161.964844 55.570312 C 154.597656 54.578125 147.269531 56.574219 141.851562 61.046875 C 135.214844 66.523438 133.332031 74.0625 132.882812 79.242188 C 131.617188 78.691406 130.164062 78.246094 128.390625 78.003906 C 126.144531 77.691406 123.730469 77.738281 121.378906 78.101562 C 125.167969 66.59375 129.289062 55.367188 133.695312 44.695312 C 134.101562 43.707031 133.945312 42.574219 133.28125 41.734375 C 132.617188 40.898438 131.542969 40.472656 130.492188 40.65625 C 125.285156 41.503906 117.53125 43.75 110.171875 49.625 C 106.839844 52.285156 104.230469 55.195312 102.144531 58.097656 L 103.042969 29.230469 C 103.074219 28.199219 102.566406 27.226562 101.695312 26.664062 C 100.835938 26.101562 99.734375 26.035156 98.804688 26.480469 C 94.15625 28.734375 87.578125 33.039062 82.621094 40.75 C 79.402344 45.753906 77.78125 50.78125 77.007812 55.292969 C 69.796875 41.71875 61.011719 29.039062 50.722656 17.46875 C 49.890625 16.53125 48.566406 16.222656 47.402344 16.695312 C 46.242188 17.164062 45.507812 18.316406 45.566406 19.566406 C 46.347656 36.113281 48.898438 52.476562 53.175781 68.402344 C 50.207031 67.804688 47.203125 67.355469 44.199219 67.066406 C 37.390625 66.398438 30.496094 66.511719 23.695312 67.414062 C 22.527344 67.566406 21.566406 68.394531 21.242188 69.523438 C 20.917969 70.652344 21.292969 71.863281 22.199219 72.613281 C 26.984375 76.578125 32.113281 80.21875 37.441406 83.453125 C 38.230469 83.925781 39.023438 84.398438 39.820312 84.859375 C 32.90625 84.148438 25.917969 83.941406 18.976562 84.25 C 17.785156 84.300781 16.746094 85.0625 16.335938 86.183594 C 15.925781 87.300781 16.226562 88.558594 17.101562 89.367188 C 24.449219 96.167969 32.15625 102.6875 40.070312 108.839844 C 28.359375 115.269531 20.960938 126.757812 20.746094 139.332031 C 16.722656 144.988281 14.359375 151.703125 14.359375 158.910156 C 14.359375 161.316406 14.648438 163.699219 15.164062 166.039062 L 4.878906 166.039062 C 3.976562 166.039062 3.125 166.453125 2.5625 167.160156 C 2.003906 167.871094 1.796875 168.796875 2.007812 169.675781 C 6.261719 187.480469 8.453125 205.382812 8.519531 222.882812 C 8.582031 239.621094 6.734375 252.445312 4.953125 264.84375 C 2.765625 280.050781 0.699219 294.417969 1.9375 314.957031 C 2.78125 328.992188 5.03125 343.046875 8.621094 356.726562 C 8.957031 358.015625 10.128906 358.921875 11.46875 358.921875 L 347.542969 358.921875 C 348.886719 358.921875 350.054688 358.015625 350.394531 356.71875 C 353.984375 343.035156 356.234375 328.980469 357.078125 314.949219 C 358.316406 294.40625 356.25 280.046875 354.0625 264.835938 C 352.277344 252.4375 350.429688 239.613281 350.496094 222.871094 C 350.5625 205.371094 352.753906 187.46875 357.007812 169.667969 C 357.214844 168.789062 357.011719 167.863281 356.453125 167.152344 C 355.890625 166.445312 355.039062 166.027344 354.136719 166.027344 L 344.476562 166.027344 C 345.804688 164.867188 347.101562 163.664062 348.316406 162.378906 C 349.890625 160.71875 351.371094 158.945312 352.710938 157.121094 C 359.285156 148.1875 359.625 136.53125 353.652344 127.953125 L 372.015625 97.886719 C 374.261719 94.199219 373.847656 89.59375 370.996094 86.683594 Z M 359.082031 77.289062 C 360.851562 80.929688 359.367188 84.5625 358.761719 85.785156 C 357.617188 86.648438 356.628906 87.753906 355.9375 89.121094 L 347.550781 105.808594 C 348.207031 100.148438 349.070312 92.617188 350.210938 82.625 L 356.105469 73.890625 C 357.15625 74.621094 358.304688 75.679688 359.082031 77.289062 Z M 336.933594 117.273438 C 338.847656 112.003906 339.003906 106.4375 337.585938 101.335938 L 343.050781 93.234375 C 341.929688 102.957031 340.773438 112.925781 340.152344 118.101562 C 339.007812 117.734375 337.917969 117.460938 336.933594 117.273438 Z M 357.320312 52.800781 C 359.484375 54.410156 359.902344 57.71875 358.242188 60.175781 L 334.796875 94.917969 C 334.160156 93.886719 333.453125 92.894531 332.660156 91.953125 L 352.148438 51.835938 C 353.328125 51.578125 355.40625 51.417969 357.320312 52.800781 Z M 337.015625 39.679688 C 337.578125 38.046875 338.9375 36.851562 340.660156 36.476562 C 342.257812 36.117188 343.78125 36.582031 344.949219 37.8125 C 347.847656 40.9375 347.90625 44.847656 347.683594 46.902344 C 347.628906 47.425781 347.472656 47.945312 347.230469 48.449219 L 328.140625 87.757812 C 328.035156 87.683594 327.941406 87.597656 327.839844 87.527344 L 327.515625 87.304688 C 325.6875 86.066406 323.722656 85.058594 321.699219 84.230469 L 326.089844 71.453125 C 326.089844 71.453125 326.089844 71.453125 326.089844 71.449219 Z M 313.867188 44.277344 C 314.152344 44.050781 314.746094 43.675781 315.585938 43.875 C 317.179688 44.242188 318.195312 45.339844 318.765625 46.191406 C 318.976562 46.503906 319.097656 46.886719 319.121094 47.324219 L 320.339844 70.03125 L 316.027344 82.566406 C 314.792969 82.367188 313.558594 82.273438 312.324219 82.257812 L 312.914062 46.191406 C 312.925781 45.453125 313.28125 44.738281 313.867188 44.277344 Z M 318.773438 89.375 C 320.675781 90.089844 322.503906 91.035156 324.191406 92.183594 L 324.464844 92.371094 C 332.65625 98.066406 335.046875 109.214844 330.019531 118.308594 C 326.828125 124.082031 323.53125 129.917969 320.121094 135.808594 C 314.246094 145.96875 308.125 156.117188 301.933594 166.023438 L 278.644531 166.023438 C 278.453125 163.699219 278.210938 161.371094 277.871094 159.046875 C 277.660156 157.597656 276.417969 156.523438 274.949219 156.523438 L 271.554688 156.523438 C 276.394531 153.949219 279.628906 150.6875 281.296875 146.683594 C 282.148438 144.640625 282.394531 142.867188 282.660156 140.988281 C 282.984375 138.683594 283.324219 136.296875 284.875 132.625 C 285.703125 130.667969 286.523438 129.183594 287.3125 127.972656 L 301.078125 135.773438 C 301.539062 136.035156 302.039062 136.15625 302.53125 136.15625 C 303.558594 136.15625 304.558594 135.617188 305.101562 134.660156 C 305.902344 133.246094 305.40625 131.441406 303.988281 130.636719 L 290.976562 123.261719 C 292.085938 121.789062 292.953125 120.152344 292.996094 117.679688 C 293.058594 114.042969 291.332031 111.632812 289 109.539062 L 294.066406 99.449219 C 298.660156 90.308594 309.507812 85.890625 318.773438 89.375 Z M 86.640625 162.425781 L 109.351562 162.425781 C 109.128906 164.546875 109 166.664062 108.917969 168.773438 C 108.910156 168.84375 108.875 168.90625 108.875 168.980469 C 108.875 169.035156 108.902344 169.078125 108.90625 169.132812 C 108.066406 192.527344 115.785156 215.171875 130.808594 232.46875 C 144.417969 248.148438 162.621094 257.503906 179.503906 257.503906 C 196.386719 257.503906 214.589844 248.144531 228.203125 232.46875 C 243.226562 215.171875 250.941406 192.527344 250.105469 169.132812 C 250.109375 169.078125 250.132812 169.035156 250.132812 168.980469 C 250.132812 168.90625 250.097656 168.847656 250.09375 168.773438 C 250.011719 166.664062 249.878906 164.546875 249.65625 162.425781 L 272.371094 162.425781 C 275.933594 191.796875 266.988281 221.277344 247.625 243.671875 C 229.34375 264.824219 204.511719 276.953125 179.5 276.953125 C 154.496094 276.953125 129.664062 264.824219 111.378906 243.671875 C 92.027344 221.277344 83.078125 191.796875 86.640625 162.425781 Z M 111.796875 131.644531 C 130.6875 131.644531 146.058594 145.296875 146.058594 162.074219 C 146.058594 163.402344 145.929688 164.71875 145.738281 166.03125 L 114.984375 166.03125 C 115.132812 163.988281 115.328125 161.941406 115.617188 159.890625 C 115.738281 159.046875 115.484375 158.1875 114.921875 157.542969 C 114.363281 156.898438 113.550781 156.523438 112.695312 156.523438 L 94.5625 156.523438 C 94.117188 150.386719 91.996094 144.675781 88.585938 139.738281 C 94.886719 134.582031 103.195312 131.644531 111.796875 131.644531 Z M 115.109375 105.011719 C 116.050781 106.742188 117.089844 108.644531 118.210938 110.757812 C 121.28125 116.539062 124.167969 122.472656 126.945312 128.441406 C 122.265625 126.710938 117.15625 125.738281 111.796875 125.738281 C 110.585938 125.738281 109.390625 125.804688 108.199219 125.898438 C 109.910156 118.160156 111.808594 110.421875 113.890625 102.769531 C 114.289062 103.503906 114.675781 104.21875 115.109375 105.011719 Z M 161.015625 171.933594 L 174.375 171.933594 C 174.382812 171.933594 174.386719 171.9375 174.394531 171.9375 C 174.402344 171.9375 174.410156 171.933594 174.417969 171.933594 L 187.847656 171.933594 C 187.878906 171.933594 187.90625 171.9375 187.9375 171.9375 C 187.941406 171.9375 187.945312 171.933594 187.953125 171.933594 L 244.261719 171.933594 C 244.410156 192.914062 237.226562 213.074219 223.75 228.597656 C 211.242188 243 194.703125 251.597656 179.507812 251.597656 C 164.3125 251.597656 147.769531 243 135.265625 228.597656 C 121.785156 213.074219 114.605469 192.914062 114.753906 171.933594 Z M 263.367188 81.296875 C 265.054688 82.488281 265.429688 83.992188 266.113281 87.277344 C 266.726562 90.222656 267.488281 93.886719 269.878906 98.382812 C 273.519531 105.222656 278.445312 108.878906 282.042969 111.546875 C 285.742188 114.292969 287.136719 115.523438 287.101562 117.578125 C 287.078125 118.738281 286.675781 119.265625 285.28125 120.921875 C 284.144531 122.265625 282.710938 123.984375 281.214844 126.679688 C 280.859375 125.238281 280.4375 123.78125 279.886719 122.296875 C 278.582031 118.808594 276.792969 115.496094 274.5625 112.453125 C 273.601562 111.136719 271.757812 110.847656 270.441406 111.8125 C 269.125 112.777344 268.839844 114.625 269.800781 115.9375 C 271.710938 118.546875 273.242188 121.382812 274.359375 124.363281 C 277.3125 132.261719 276.769531 139.664062 275.753906 144.59375 C 273.601562 149.488281 267.351562 153.074219 257.109375 155.285156 C 260.367188 150.128906 261.632812 145.15625 260.878906 140.433594 C 259.65625 132.738281 253.453125 127.917969 248.46875 124.046875 C 245.339844 121.621094 242.113281 119.113281 242.394531 117.410156 C 242.675781 115.738281 246.316406 114.328125 249.53125 113.089844 C 254.636719 111.121094 260.988281 108.667969 262.554688 102.472656 C 264.273438 95.671875 258.941406 89.453125 254.660156 84.457031 C 253.597656 83.214844 252.558594 82.089844 251.546875 81.066406 C 256.832031 79.46875 260.871094 79.53125 263.367188 81.296875 Z M 250.171875 88.304688 C 253.746094 92.472656 257.800781 97.199219 256.828125 101.03125 C 256.035156 104.175781 251.867188 105.859375 247.742188 107.453125 C 246.078125 103.148438 243.695312 99.539062 240.550781 96.773438 C 239.15625 95.546875 237.753906 94.613281 236.34375 93.863281 L 236.34375 86.449219 C 236.34375 84.816406 235.019531 83.496094 233.390625 83.496094 C 231.761719 83.496094 230.441406 84.816406 230.441406 86.449219 L 230.441406 91.722656 C 228.402344 91.257812 226.335938 90.988281 224.222656 90.71875 C 220.726562 90.269531 217.097656 89.753906 213 88.386719 C 216.203125 87.589844 219.199219 86.402344 221.976562 84.789062 C 224.875 83.109375 226.617188 81.523438 228.015625 80.242188 C 229.582031 78.816406 230.371094 78.09375 232.066406 77.738281 C 234.933594 77.136719 241.101562 77.714844 250.171875 88.304688 Z M 218.546875 79.902344 C 214.226562 82.304688 209.210938 83.554688 203.621094 83.632812 C 201.644531 82.078125 200.320312 80.496094 199.050781 78.945312 C 197.046875 76.496094 194.980469 73.980469 190.789062 72.542969 C 193.695312 70.773438 197.773438 69.152344 202.6875 69.566406 C 209.335938 70.101562 215.210938 74 218.546875 79.902344 Z M 224.027344 65.894531 C 227.234375 66.839844 229.90625 69.011719 231.582031 71.847656 C 231.339844 71.886719 231.085938 71.914062 230.859375 71.960938 C 227.589844 72.640625 225.867188 74.214844 224.042969 75.878906 C 223.835938 76.066406 223.609375 76.265625 223.390625 76.460938 C 221.035156 72.503906 217.75 69.304688 213.90625 67.078125 C 216.96875 65.386719 220.621094 64.894531 224.027344 65.894531 Z M 145.609375 65.59375 C 149.761719 62.164062 155.4375 60.648438 161.171875 61.421875 C 169.46875 62.546875 177.726562 61.09375 184.429688 57.347656 C 190.664062 53.875 197.382812 53.441406 201.152344 56.273438 C 203.378906 57.949219 204.429688 61.21875 204.925781 63.949219 C 204.335938 63.863281 203.761719 63.730469 203.164062 63.679688 C 192.574219 62.835938 185.179688 68.902344 182.5 71.550781 C 175.054688 72.121094 168.464844 76.398438 162.511719 80.292969 C 159.964844 81.957031 157.550781 83.527344 155.210938 84.761719 C 155.089844 82.683594 155.257812 80.253906 156.082031 77.667969 C 156.800781 75.394531 157.933594 73.277344 159.441406 71.371094 C 160.453125 70.089844 160.238281 68.234375 158.957031 67.222656 C 157.679688 66.210938 155.824219 66.425781 154.808594 67.707031 C 152.855469 70.175781 151.390625 72.929688 150.453125 75.878906 C 149.132812 80.046875 149.097656 83.894531 149.484375 86.925781 C 147.429688 87.339844 145.410156 87.3125 143.40625 86.53125 C 141.441406 85.765625 140.152344 84.617188 138.675781 83.28125 C 138.5 80.285156 138.597656 71.378906 145.609375 65.59375 Z M 127.585938 83.839844 C 130.589844 84.253906 132.195312 85.414062 133.910156 86.933594 C 133.914062 86.9375 133.917969 86.9375 133.917969 86.9375 C 134.164062 87.15625 134.414062 87.382812 134.667969 87.613281 C 136.355469 89.136719 138.269531 90.867188 141.273438 92.027344 C 150.097656 95.464844 158.054688 90.261719 165.746094 85.234375 C 172.980469 80.5 179.8125 76.035156 187.464844 77.730469 C 191.085938 78.53125 192.367188 80.097656 194.484375 82.6875 C 197.03125 85.800781 200.207031 89.671875 208.242188 92.957031 C 214.152344 95.375 219.101562 96.011719 223.472656 96.574219 C 226.855469 97.007812 229.644531 97.371094 232.222656 98.433594 C 232.234375 98.4375 232.246094 98.445312 232.257812 98.449219 C 233.769531 99.074219 235.210938 99.941406 236.65625 101.210938 C 239.117188 103.375 240.992188 106.269531 242.320312 109.769531 C 239.429688 111.265625 237.113281 113.21875 236.574219 116.445312 C 235.714844 121.621094 240.148438 125.066406 244.847656 128.714844 C 249.226562 132.117188 254.191406 135.972656 255.054688 141.367188 C 255.765625 145.835938 253.636719 150.933594 248.796875 156.527344 L 246.320312 156.527344 C 245.464844 156.527344 244.652344 156.898438 244.09375 157.546875 C 243.53125 158.191406 243.277344 159.050781 243.398438 159.894531 C 243.6875 161.941406 243.878906 163.992188 244.03125 166.035156 L 191.066406 166.035156 L 194.4375 109.773438 C 194.90625 101.9375 191.78125 94.472656 185.84375 89.273438 C 185.808594 89.242188 185.71875 89.167969 185.683594 89.136719 C 184.425781 88.132812 182.648438 88.351562 181.617188 89.582031 C 180.585938 90.8125 180.769531 92.679688 181.980469 93.734375 C 186.515625 97.703125 188.910156 103.421875 188.550781 109.421875 L 185.160156 166.03125 L 176.800781 166.03125 C 175.375 159.257812 174.3125 152.359375 173.679688 145.484375 C 173.054688 138.636719 172.820312 131.667969 172.980469 124.78125 C 173.019531 123.152344 171.734375 121.800781 170.101562 121.761719 C 168.554688 121.738281 167.117188 123.015625 167.082031 124.648438 C 166.910156 131.757812 167.152344 138.949219 167.804688 146.027344 C 168.417969 152.71875 169.429688 159.425781 170.773438 166.03125 L 163.898438 166.03125 C 163.699219 155.871094 162.417969 145.75 159.96875 135.90625 C 157.765625 127.054688 154.644531 118.375 150.695312 110.125 C 149.992188 108.652344 148.230469 108.035156 146.761719 108.734375 C 145.292969 109.4375 144.667969 111.203125 145.375 112.671875 C 149.152344 120.570312 152.136719 128.867188 154.242188 137.335938 C 156.578125 146.710938 157.800781 156.355469 157.996094 166.035156 L 151.726562 166.035156 C 151.882812 164.722656 151.972656 163.402344 151.972656 162.074219 C 151.972656 150.039062 145.441406 139.382812 135.445312 132.765625 C 131.753906 124.398438 127.722656 116.066406 123.429688 107.992188 C 122.300781 105.859375 121.25 103.9375 120.300781 102.191406 C 115.675781 93.707031 113.84375 90.175781 115.0625 87.808594 C 116.679688 84.621094 122.84375 83.183594 127.585938 83.839844 Z M 113.855469 54.230469 C 118.019531 50.90625 122.335938 48.921875 126.085938 47.746094 C 121.894531 58.273438 117.96875 69.265625 114.371094 80.507812 C 112.429688 81.664062 110.792969 83.164062 109.796875 85.113281 C 108.257812 88.113281 108.523438 91.035156 109.992188 94.792969 C 106.960938 105.351562 104.261719 116.125 101.9375 126.875 C 101.289062 127.023438 100.632812 127.15625 99.996094 127.332031 L 101.722656 71.65625 C 103.398438 66.722656 106.839844 59.832031 113.855469 54.230469 Z M 87.585938 43.933594 C 90.394531 39.5625 93.828125 36.472656 96.980469 34.332031 L 94.839844 103.226562 C 92.375 92.375 89.003906 81.738281 84.683594 71.417969 C 84.007812 69.800781 83.28125 68.214844 82.5625 66.621094 C 82.066406 62.675781 81.679688 53.117188 87.585938 43.933594 Z M 52.0625 28.15625 C 63.242188 41.992188 72.363281 57.269531 79.238281 73.695312 C 86.75 91.648438 91.371094 110.5625 93.039062 129.945312 C 91.480469 130.695312 89.960938 131.527344 88.511719 132.464844 C 78.378906 117.167969 70.132812 100.699219 64.027344 83.4375 C 62.648438 79.535156 61.375 75.59375 60.214844 71.625 C 60.203125 71.578125 60.1875 71.539062 60.175781 71.492188 C 56.054688 57.359375 53.339844 42.855469 52.0625 28.15625 Z M 31.832031 72.613281 C 35.769531 72.445312 39.71875 72.554688 43.632812 72.929688 C 47.449219 73.304688 51.269531 73.945312 55.011719 74.839844 C 56.078125 78.382812 57.230469 81.910156 58.464844 85.40625 C 58.734375 86.164062 59.003906 86.917969 59.28125 87.671875 C 52.761719 85.113281 46.472656 82.003906 40.507812 78.390625 C 37.539062 76.59375 34.640625 74.664062 31.832031 72.613281 Z M 45.109375 91.457031 C 50.84375 92.300781 56.566406 93.519531 62.132812 95.085938 C 66.757812 106.492188 72.296875 117.523438 78.695312 128.0625 C 68.84375 122.195312 59.25 115.8125 50.070312 109.019531 C 42.023438 103.0625 34.160156 96.691406 26.621094 90.011719 C 32.816406 90.078125 39.007812 90.558594 45.109375 91.457031 Z M 45.300781 112.808594 C 45.722656 113.125 46.136719 113.457031 46.558594 113.769531 C 50.804688 116.914062 55.164062 119.929688 59.570312 122.886719 C 57.914062 122.699219 56.238281 122.570312 54.523438 122.570312 C 44.296875 122.570312 34.980469 126.074219 27.882812 131.785156 C 30.421875 123.679688 36.679688 116.730469 45.300781 112.808594 Z M 20.265625 158.902344 C 20.265625 142.125 35.636719 128.472656 54.527344 128.472656 C 72.515625 128.472656 87.28125 140.859375 88.65625 156.523438 L 84.058594 156.523438 C 82.59375 156.523438 81.351562 157.597656 81.136719 159.046875 C 80.796875 161.371094 80.554688 163.699219 80.363281 166.023438 L 21.21875 166.023438 C 20.589844 163.703125 20.265625 161.316406 20.265625 158.902344 Z M 348.21875 265.675781 C 350.363281 280.578125 352.386719 294.652344 351.1875 314.589844 C 350.40625 327.488281 348.414062 340.402344 345.25 353.015625 L 13.761719 353.015625 C 10.601562 340.40625 8.605469 327.488281 7.824219 314.589844 C 6.625 294.652344 8.648438 280.578125 10.792969 265.675781 C 12.609375 253.066406 14.488281 240.023438 14.421875 222.847656 C 14.359375 206.089844 12.398438 188.980469 8.589844 171.933594 L 19.019531 171.933594 C 19.027344 171.933594 19.03125 171.9375 19.039062 171.9375 C 19.042969 171.9375 19.050781 171.933594 19.054688 171.933594 L 80.035156 171.933594 C 79.25 199.488281 88.714844 226.472656 106.921875 247.53125 C 126.328125 269.980469 152.785156 282.859375 179.507812 282.859375 C 206.230469 282.859375 232.6875 269.984375 252.09375 247.535156 C 270.296875 226.476562 279.765625 199.488281 278.976562 171.9375 L 350.421875 171.9375 C 346.617188 188.980469 344.65625 206.089844 344.589844 222.851562 C 344.527344 240.023438 346.402344 253.066406 348.21875 265.675781 Z M 347.953125 153.621094 C 346.75 155.253906 345.433594 156.835938 344.023438 158.324219 C 341.238281 161.265625 338.085938 163.847656 334.667969 166.027344 L 308.863281 166.027344 C 312.988281 159.378906 317.042969 152.648438 321.035156 145.875 L 330.585938 149.75 C 330.949219 149.898438 331.324219 149.964844 331.691406 149.964844 C 332.859375 149.964844 333.964844 149.273438 334.429688 148.125 C 335.042969 146.613281 334.3125 144.890625 332.804688 144.277344 L 324.066406 140.730469 C 324.449219 140.074219 324.847656 139.421875 325.226562 138.765625 C 328.328125 133.402344 331.316406 128.09375 334.238281 122.828125 C 337.363281 123.1875 343.066406 124.542969 347.53125 129.652344 C 347.929688 130.113281 348.304688 130.582031 348.644531 131.054688 C 353.292969 137.476562 353.007812 146.753906 347.953125 153.621094 Z M 366.972656 94.804688 L 349.539062 123.34375 C 348.542969 122.472656 347.519531 121.707031 346.496094 121.050781 L 361.210938 91.773438 C 362.070312 90.066406 364.089844 89.253906 365.691406 90.023438 C 366.109375 90.238281 366.464844 90.496094 366.785156 90.824219 C 367.71875 91.777344 367.796875 93.453125 366.972656 94.804688 Z M 366.972656 94.804688 " fill-opacity="1" fill-rule="nonzero"/></g><path fill="#000000" d="M 201.507812 162.191406 C 201.886719 162.351562 202.277344 162.425781 202.664062 162.425781 C 203.8125 162.425781 204.90625 161.753906 205.378906 160.632812 C 207.609375 155.394531 209.394531 149.929688 210.675781 144.398438 C 211.980469 138.777344 212.789062 133.003906 213.085938 127.242188 C 213.167969 125.613281 211.917969 124.226562 210.289062 124.140625 C 208.738281 124.035156 207.273438 125.3125 207.191406 126.941406 C 206.914062 132.355469 206.152344 137.777344 204.929688 143.058594 C 203.722656 148.257812 202.042969 153.394531 199.949219 158.316406 C 199.3125 159.820312 200.007812 161.554688 201.507812 162.191406 Z M 201.507812 162.191406 " fill-opacity="1" fill-rule="nonzero"/><path fill="#000000" d="M 222.488281 161.550781 C 223.414062 161.550781 224.328125 161.117188 224.902344 160.296875 C 227.238281 156.992188 229.320312 153.476562 231.097656 149.851562 C 232.9375 146.105469 234.472656 142.191406 235.675781 138.210938 C 236.144531 136.652344 235.261719 135.003906 233.699219 134.535156 C 232.144531 134.058594 230.496094 134.949219 230.023438 136.507812 C 228.917969 140.183594 227.496094 143.796875 225.800781 147.253906 C 224.160156 150.601562 222.234375 153.84375 220.082031 156.898438 C 219.140625 158.230469 219.457031 160.074219 220.789062 161.015625 C 221.308594 161.371094 221.902344 161.550781 222.488281 161.550781 Z M 222.488281 161.550781 " fill-opacity="1" fill-rule="nonzero"/></svg>